<svg xmlns="http://www.w3.org/2000/svg" viewBox="0 0 98.6 65.3"><defs><style>.cls-1{fill:#231f20;}</style></defs><g id="Layer_2" data-name="Layer 2"><g id="Layer_1-2" data-name="Layer 1"><path class="cls-1" d="M0,0V65.3H98.6V0ZM93.6,60.3H5V5H93.6Z"/><polygon class="cls-1" points="23.3 26.9 23.3 26.9 23.3 43.1 26.9 43.1 26.9 23.5 23.8 23.5 19.1 25.9 19.7 28.7 23.3 26.9"/><path class="cls-1" d="M40.7,43.4a6.9,6.9,0,0,0,6.9-7c0-3.9-2.6-6.4-6-6.4a5.7,5.7,0,0,0-4.4,1.9h-.1c.5-2.7,2.5-5.2,6.6-5.7h1.9V23.3a5.3,5.3,0,0,0-1.8,0,11.7,11.7,0,0,0-7,2.9A12.2,12.2,0,0,0,33.3,35C33.3,39.8,35.9,43.4,40.7,43.4Zm-3.5-8.6a3.6,3.6,0,0,1,3.2-2c2.2,0,3.4,1.6,3.4,3.8s-1.2,4-3.1,4S37,38.5,37,35.9A3.1,3.1,0,0,1,37.2,34.8Z"/><path class="cls-1" d="M52.7,43.1l1.7-3,1.3-2.3h.1a17.1,17.1,0,0,0,1.3,2.3l1.8,3h4.2l-5-7.6L63,28.4H59l-1.7,2.7-1.2,2.3H56c-.4-.7-.9-1.4-1.3-2.2l-1.8-2.8H48.8l4.9,7.2-5.1,7.5Z"/><path class="cls-1" d="M70.3,36.2a5.5,5.5,0,0,0,4.3-1.7h0a6.5,6.5,0,0,1-2.5,4.3,7.9,7.9,0,0,1-3.9,1.6,14.6,14.6,0,0,1-2.1,0v2.9a8,8,0,0,0,2.2,0A10.9,10.9,0,0,0,75,40.6c2-1.9,3.4-4.9,3.4-9.1s-2.4-8.3-7-8.3a6.9,6.9,0,0,0-7,7A5.7,5.7,0,0,0,70.3,36.2Zm.9-10.3c2.5,0,3.4,2.3,3.4,5a2.2,2.2,0,0,1-.2,1,3.7,3.7,0,0,1-3.2,1.6c-2,0-3.1-1.5-3.2-3.5S69.4,25.9,71.2,25.9Z"/></g></g></svg>