<svg xmlns="http://www.w3.org/2000/svg" viewBox="0 0 70.4 70.4"><defs><style>.cls-1{fill:#231f20;}</style></defs><g id="Layer_2" data-name="Layer 2"><g id="Layer_1-2" data-name="Layer 1"><path class="cls-1" d="M0,0V70.4H70.4V0ZM65.4,65.4H5V5H65.4Z"/><polygon class="cls-1" points="20 28.8 20.1 28.8 20.1 45 23.6 45 23.6 25.4 20.5 25.4 15.8 27.8 16.4 30.6 20 28.8"/><path class="cls-1" d="M33.3,45,35,42l1.3-2.3h.1A17.1,17.1,0,0,0,37.7,42l1.8,3h4.2l-5-7.6,4.9-7.1h-4L37.9,33l-1.2,2.3h-.1c-.4-.7-.9-1.4-1.3-2.2l-1.8-2.8H29.4l4.9,7.2L29.2,45Z"/><polygon class="cls-1" points="51 28.8 51 28.8 51 45 54.6 45 54.6 25.4 51.5 25.4 46.7 27.8 47.4 30.6 51 28.8"/></g></g></svg>