<svg xmlns="http://www.w3.org/2000/svg" viewBox="0 0 8 10.6"><defs><style>.cls-1{fill:#231f20;}</style></defs><g id="Layer_2" data-name="Layer 2"><g id="Layer_1-2" data-name="Layer 1"><path class="cls-1" d="M2.8,8.3H1.1c-.1,0-.1,0-.1-.1H2.9A.1.1,0,0,1,2.8,8.3Z"/><path class="cls-1" d="M4.3,2H2.5l.2-.2H4.3c.1,0,.1.1.1.2A.1.1,0,0,1,4.3,2Z"/><path class="cls-1" d="M3.4,2.7V1.1c0-.1,0-.2.1-.2s.1.1.1.2V2.7H3.4Z"/><path class="cls-1" d="M5.8,8.3H4.2c-.1,0-.1,0-.1-.1H6C6,8.3,5.9,8.3,5.8,8.3Z"/><path class="cls-1" d="M7,9.6V1.1A.1.1,0,0,0,6.9,1H5.5a.1.1,0,0,0-.1.1H6.7V9.5H.3V1.2H1.6c0-.1-.1-.1-.2-.1H.1a.1.1,0,0,0-.1.1V9.8H6.9Z"/><path class="cls-1" d="M7.4,1.6c0-.1,0-.2-.1-.2s-.1.1-.1.2l.5,8.3-6.4.5v-.3c0-.1,0-.2-.1-.2s-.1.1-.1.2v.4h.2l6.7-.4V10Z"/><path class="cls-1" d="M5.8,4.1H1.1c-.1,0-.1.1-.1.2a.1.1,0,0,0,.1.1H6A.2.2,0,0,0,5.8,4.1Z"/><path class="cls-1" d="M5.8,5.1H1.1c-.1,0-.1,0-.1.1H6C6,5.1,5.9,5.1,5.8,5.1Z"/><path class="cls-1" d="M5.8,6H1c0,.1,0,.1.1.1H5.8c.1,0,.2,0,.2-.1Z"/><path class="cls-1" d="M2.3,3.2v.5c-.1.1,0,.1,0,.1a.1.1,0,0,0,.1.1h0l.8-.4h.4A1.8,1.8,0,1,0,1.7,1.8,2,2,0,0,0,2.3,3.2ZM3.5.3A1.5,1.5,0,0,1,5,1.8,1.5,1.5,0,0,1,3.5,3.3H3l-.5.2V3.1A.1.1,0,0,0,2.5,3,1.7,1.7,0,0,1,2,1.8,1.4,1.4,0,0,1,3.5.3Z"/></g></g></svg>