<svg xmlns="http://www.w3.org/2000/svg" viewBox="0 0 9.9 8.1"><defs><style>.cls-1{fill:#231f20;}</style></defs><g id="Layer_2" data-name="Layer 2"><g id="Layer_1-2" data-name="Layer 1"><path class="cls-1" d="M9.3,0H.6A.6.6,0,0,0,0,.6v5a.6.6,0,0,0,.6.6H9.3a.5.5,0,0,0,.6-.6V.6A.6.6,0,0,0,9.3,0Zm.4,5.6a.4.4,0,0,1-.4.4H.6a.4.4,0,0,1-.4-.4V.6A.4.4,0,0,1,.6.2H9.3a.4.4,0,0,1,.4.4Z"/><path class="cls-1" d="M6.9,7.3H5.8V6.6H5.5v.7H4.4V6.6H4.2v.7H3a.4.4,0,1,0,0,.8H6.9a.4.4,0,0,0,0-.8Zm0,.6H3c-.1,0-.1-.1-.1-.2A.1.1,0,0,1,3,7.6H7.1Z"/><path class="cls-1" d="M7.2,2.1H2.8c-.1,0-.1,0-.1-.1V.8c0-.1,0-.1.1-.1H7.2a.1.1,0,0,1,.1.1V2A.1.1,0,0,1,7.2,2.1ZM2.9,1.9H7V.9H2.9Z"/><path class="cls-1" d="M7.2,3.9H2.8c-.1,0-.1-.1-.1-.2V2.5a.1.1,0,0,1,.1-.1H7.3V3.9ZM2.9,3.6H7v-1H2.9Z"/><path class="cls-1" d="M7.2,5.6H2.7V4.3c0-.1,0-.2.1-.2H7.2V5.5ZM2.9,5.4H7v-1H2.9Z"/><path class="cls-1" d="M8.8,3H8.2l.2-.2c.1-.1.1-.2,0-.2H8.3L7.8,3h0l.5.4h0c.1,0,.1,0,.1-.1s.1-.1,0-.1l-.2-.3h.6c.1,0,.2,0,.2-.1Z"/><path class="cls-1" d="M2.1,3l-.4-.4H1.5v.2l.2.2H1.1a.1.1,0,0,0-.1.1c0,.1,0,.1.1.1h.6l-.2.3h0a.1.1,0,0,0,.2,0l.4-.4h0Z"/></g></g></svg>