<svg xmlns="http://www.w3.org/2000/svg" viewBox="0 0 11.9 10.3"><defs><style>.cls-1{fill:#231f20;}</style></defs><g id="Layer_2" data-name="Layer 2"><g id="Layer_1-2" data-name="Layer 1"><rect class="cls-1" x="3.3" y="1.5" width="5.6" height="0.26"/><rect class="cls-1" x="3.3" y="2.5" width="5.6" height="0.26"/><rect class="cls-1" x="3.3" y="3.5" width="5.6" height="0.26"/><rect class="cls-1" x="3.3" y="4.5" width="5.6" height="0.26"/><rect class="cls-1" x="3.3" y="5.5" width="5.6" height="0.26"/><rect class="cls-1" x="3.3" y="6.5" width="5.6" height="0.26"/><path class="cls-1" d="M9.5.6H2.9c0,.1,0,.1.1.1H9.3V9.9h.3V.7Z"/><path class="cls-1" d="M1.3,0A1.6,1.6,0,0,0,0,.6H0V10H2.6V.7h0A1.6,1.6,0,0,0,1.3,0ZM.5,9.9a1.1,1.1,0,0,1,.8-.3,1.1,1.1,0,0,1,.8.3Zm1.8-.2a1.3,1.3,0,0,0-1-.4,1.5,1.5,0,0,0-1,.4V.7a1.2,1.2,0,0,1,1-.4,1.2,1.2,0,0,1,1,.4Z"/><path class="cls-1" d="M11.8,4.5H10.4v5.5c0,.1,0,.2.1.2h1.3c.1,0,.1-.1.1-.2V4.6ZM11,10h-.4V4.8H11Zm.7,0h-.4V4.8h.4Z"/><path class="cls-1" d="M10.5,4.2h1.3a.1.1,0,0,0,.1-.1h0l-.6-1.6a.2.2,0,0,0-.3,0L10.4,4h.1ZM11,3.1h.3l.3.8h-.9Z"/></g></g></svg>