<svg xmlns="http://www.w3.org/2000/svg" viewBox="0 0 9.1 9.8"><defs><style>.cls-1{fill:#231f20;}</style></defs><g id="Layer_2" data-name="Layer 2"><g id="Layer_1-2" data-name="Layer 1"><path class="cls-1" d="M7.1,3.7H7l-.4-.3-.4.3H6c-.1-.1-.2-.2-.1-.3V3l-.4-.3a.1.1,0,0,1,0-.2.2.2,0,0,1,.2-.2h.4l.2-.4.2-.2a.2.2,0,0,1,.2.2v.4h.5a.2.2,0,0,1,.2.2c0,.1,0,.2-.1.2L7.1,3l.2.4a.4.4,0,0,1-.1.3Zm-.5-.6h.1l.3.2V3A.3.3,0,0,1,7,2.8l.3-.2H6.9a.2.2,0,0,1-.2-.2v0l-.3.2H5.8l.4.2a.3.3,0,0,0,.1.2l-.2.4.4-.2A.1.1,0,0,1,6.6,3.1Zm.8-.5ZM6.6,2Z"/><path class="cls-1" d="M4.2,8.4H4.1a.3.3,0,0,1,.1-.2A3.8,3.8,0,0,0,8.1,4.2h.3A4.2,4.2,0,0,1,4.2,8.4Z"/><path class="cls-1" d="M4,3.9a2.6,2.6,0,0,0,.5-1.2c0-.1,0-.1.1-.1h.1a1.3,1.3,0,0,1,.1,1.3c0,.1,0,.1.1.2h.2a1.7,1.7,0,0,0-.2-1.5h0c-.1-.1-.3-.2-.4-.1a.3.3,0,0,0-.3.3,1.9,1.9,0,0,1-.3,1l-1.1.9h0c0-.1,0-.2-.1-.2H1.6c-.1,0-.1.1-.1.2V6.8c0,.1,0,.1.1.1H2.7c.1,0,.1,0,.1-.1V5ZM2.6,6.7H1.7v-2h.9Z"/><path class="cls-1" d="M6,4.2H4.8a.4.4,0,0,0-.4.4V6.2h.2V4.6H6.1V6.5c0,.1,0,.2-.1.2H4.5L3.2,6.4H3.1c-.1.1,0,.1,0,.1l1.4.3H6a.4.4,0,0,0,.4-.4V4.6A.4.4,0,0,0,6,4.2Z"/><path class="cls-1" d="M4.5,0A4.5,4.5,0,0,0,0,4.5,4.6,4.6,0,0,0,1.7,8.1L1.2,9.6v.2h.1l2-.9,1.1.2A4.7,4.7,0,0,0,9.1,4.5,4.6,4.6,0,0,0,4.5,0Zm0,8.8H3.3l-1.8.8L1.9,8h0A4.1,4.1,0,0,1,.2,4.5,4.4,4.4,0,0,1,4.5.2,4.3,4.3,0,0,1,8.8,4.5,4.3,4.3,0,0,1,4.5,8.8Z"/></g></g></svg>