<?xml version="1.0" encoding="utf-8"?>
<!-- Generator: Adobe Illustrator 25.2.1, SVG Export Plug-In . SVG Version: 6.00 Build 0)  -->
<svg version="1.1" id="Layer_1" xmlns="http://www.w3.org/2000/svg" xmlns:xlink="http://www.w3.org/1999/xlink" x="0px" y="0px"
	 viewBox="0 0 172.9 172.9" style="enable-background:new 0 0 172.9 172.9;" xml:space="preserve">
<style type="text/css">
	.st0{fill:url(#SVGID_1_);}
	.st1{fill:url(#SVGID_2_);}
	.st2{fill:url(#SVGID_3_);}
	.st3{fill:url(#SVGID_4_);}
	.st4{fill:url(#SVGID_5_);}
	.st5{fill:url(#SVGID_6_);}
	.st6{fill:url(#SVGID_7_);}
</style>
<g>
	
		<linearGradient id="SVGID_1_" gradientUnits="userSpaceOnUse" x1="55.072" y1="94.5716" x2="22.2071" y2="31.4003" gradientTransform="matrix(1 0 0 -1 0 174)">
		<stop  offset="0" style="stop-color:#221F1F"/>
		<stop  offset="0.9992" style="stop-color:#D73651"/>
	</linearGradient>
	<path class="st0" d="M15.1,134.4c6-22,18.8-40.7,35.7-54c-8.8,12-15.2,26-18.2,41.6c-2,10.3-2.4,20.5-1.4,30.3
		C25,147.1,19.6,141.1,15.1,134.4z"/>
	<g>
		
			<linearGradient id="SVGID_2_" gradientUnits="userSpaceOnUse" x1="97.2494" y1="99.4937" x2="80.8919" y2="153.8511" gradientTransform="matrix(1 0 0 -1 0 174)">
			<stop  offset="0" style="stop-color:#221F1F"/>
			<stop  offset="0.9992" style="stop-color:#D73651"/>
		</linearGradient>
		<path class="st1" d="M102.9,51.3c8.8,0,15.7,3.8,19.2,7c1.4-4.8,2.3-9.7,2.9-14.5c-2.4-19.1-14.2-35.3-19.6-41.9
			C83.5-2.9,60,1.5,41.1,13.8c6.8,1.2,15.5,4.8,24.3,10.1c13,7.8,23.8,18.1,30,28.3C98,51.6,100.5,51.3,102.9,51.3z"/>
	</g>
	
		<linearGradient id="SVGID_3_" gradientUnits="userSpaceOnUse" x1="85.9875" y1="83.3939" x2="140.0932" y2="130.2016" gradientTransform="matrix(1 0 0 -1 0 174)">
		<stop  offset="0" style="stop-color:#221F1F"/>
		<stop  offset="0.9992" style="stop-color:#D73651"/>
	</linearGradient>
	<path class="st2" d="M171,58.6c-10.4,34.5-48.8,61.7-85.1,39.8c8.3-2,17.8-6.9,24-13.3l0,0c19.9-16.7,21.5-66.1,11-80.8
		C145.1,14.2,163.2,34.4,171,58.6z"/>
	
		<linearGradient id="SVGID_4_" gradientUnits="userSpaceOnUse" x1="91.4176" y1="88.5464" x2="100.9805" y2="16.3216" gradientTransform="matrix(1 0 0 -1 0 174)">
		<stop  offset="0" style="stop-color:#221F1F"/>
		<stop  offset="0.9992" style="stop-color:#D73651"/>
	</linearGradient>
	<path class="st3" d="M141.2,154.5c-19,14.7-43.8,21.5-69.2,16.9c-18.2-21-20.1-56.7-3-79.8c0,0,0,0,0,0.1c0.8-1.4,1.9-2.6,2.8-3.9
		c0.3-0.4,0.7-0.8,1-1.2c0.5,0.6,1,1.2,1.5,1.8C68.5,122.6,117.6,156.5,141.2,154.5z"/>
	<g>
		
			<linearGradient id="SVGID_5_" gradientUnits="userSpaceOnUse" x1="103.3086" y1="87.9632" x2="84.6862" y2="122.4399" gradientTransform="matrix(1 0 0 -1 0 174)">
			<stop  offset="0" style="stop-color:#221F1F"/>
			<stop  offset="0.9992" style="stop-color:#D73651"/>
		</linearGradient>
		<path class="st4" d="M74,85.4c3.5,4.1,7,7.2,11.4,10c7.1-1.8,14.8-5.8,19.9-10.2l0,0l0.6-0.5c8.4-6.9,11.7-13.9,14.2-21.2
			C102.3,64.3,86.8,71.6,74,85.4z"/>
	</g>
	<g>
		
			<linearGradient id="SVGID_6_" gradientUnits="userSpaceOnUse" x1="81.6562" y1="93.9131" x2="156.3976" y2="57.1715" gradientTransform="matrix(1 0 0 -1 0 174)">
			<stop  offset="0" style="stop-color:#221F1F"/>
			<stop  offset="0.9992" style="stop-color:#D73651"/>
		</linearGradient>
		<path class="st5" d="M76.1,93.6c-0.1,13.1,7.7,27.2,21,37c15.4,11.4,36,15.8,54,11.7c10.3-11.4,17.2-25.5,20.2-40.6l0,0
			c1.3-6.9,1.8-13.9,1.5-20.9c-11.5,14.5-32.9,25.8-53.7,27.8C101.9,110.2,85.9,102.7,76.1,93.6z"/>
	</g>
	
		<linearGradient id="SVGID_7_" gradientUnits="userSpaceOnUse" x1="97.4019" y1="92.6255" x2="21.6539" y2="115.0227" gradientTransform="matrix(1 0 0 -1 0 174)">
		<stop  offset="0" style="stop-color:#221F1F"/>
		<stop  offset="0.9992" style="stop-color:#D73651"/>
	</linearGradient>
	<path class="st6" d="M79.8,59.6C86,57,91.4,55.4,96,54.5c-0.6,0.1-1.1,0.2-1.7,0.3c-1.8-3.4-4.1-6.9-7.1-10.3
		c-4.3-5.1-8.8-9.3-13.2-12.7c-19.6-9.5-42.1-7-51.3-5.4C12.3,37.9,4.8,52.2,1.6,68.5c-1.8,9.4-2.1,18.8-0.9,27.8
		c4-5.8,16.4-21.2,41.7-28.4c-1-0.3-2.1-0.6-3.3-0.8c-21.4-4.2-21.6-20.6-21.6-20.6s10.7,8.3,38.2,1.7s34.1,3.7,34.1,3.7
		C83.5,52,80,59.1,79.8,59.6z M59.3,35.7c-2,0.3-4.2,0.8-6.4,1.4c-5.3-2.1-10.2-5.1-15-9.4C37.9,27.8,48.6,33.1,59.3,35.7z
		 M46.4,38.5c-3.7,0.5-7.7,0.6-11.5,0.4c-3.5-1.4-6.8-3.2-10.2-5.5C24.7,33.5,35.6,37.3,46.4,38.5z M55.9,43.2
		C41.8,47.4,30,47,17.6,41c0,0,20.6,3.6,32.8,0c12.8-3.8,22.1-2.6,28.1,1.1C78.5,42.1,70.1,39,55.9,43.2z"/>
</g>
</svg>
