<?xml version="1.0" encoding="utf-8"?>
<!-- Generator: Adobe Illustrator 25.0.1, SVG Export Plug-In . SVG Version: 6.00 Build 0)  -->
<svg version="1.1" id="Layer_1" xmlns="http://www.w3.org/2000/svg" xmlns:xlink="http://www.w3.org/1999/xlink" x="0px" y="0px"
	 viewBox="0 0 521 135" style="enable-background:new 0 0 521 135;" xml:space="preserve">
<style type="text/css">
	.st0{fill:#662D91;}
	.st1{fill:#D73651;}
	.st2{fill:#221F1F;}
	.st3{fill:url(#SVGID_1_);}
	.st4{fill:url(#SVGID_2_);}
	.st5{fill:url(#SVGID_3_);}
	.st6{fill:url(#SVGID_4_);}
	.st7{fill:url(#SVGID_5_);}
	.st8{fill:url(#SVGID_6_);}
	.st9{fill:url(#SVGID_7_);}
	.st10{fill:#9E005D;}
	.st11{fill:#FFFFFF;}
	.st12{font-family:'DINNextLTArabic-Regular';}
	.st13{font-size:13.1652px;}
</style>
<g>
	<path class="st0" d="M146.2,64.6c-0.2-0.5-0.3-1-0.4-1.6c-0.1-0.5-0.2-1.2-0.3-1.9c-0.1-0.7-0.1-1.6-0.2-2.7c0-1-0.1-2.3-0.1-3.7
		c0-1.5,0-2.7,0.1-3.7c0-1,0.1-1.9,0.2-2.7c0.1-0.7,0.2-1.4,0.3-1.9c0.1-0.5,0.3-1.1,0.4-1.6c0.9-2.8,2.4-4.9,4.4-6.3
		c2-1.4,4.5-2.1,7.4-2.1c2.6,0,4.9,0.6,6.9,1.8c2,1.2,3.4,3,4.4,5.3c0.1,0.3,0,0.5-0.2,0.7l-3.1,1.5c-0.3,0.2-0.6,0.1-0.7-0.3
		c-0.7-1.4-1.6-2.5-2.8-3.4c-1.1-0.9-2.6-1.3-4.5-1.3c-1.9,0-3.5,0.5-4.7,1.4c-1.2,0.9-2.1,2.2-2.6,3.8c-0.1,0.4-0.2,0.8-0.3,1.2
		c-0.1,0.4-0.2,1-0.2,1.6c-0.1,0.6-0.1,1.4-0.1,2.4c0,1-0.1,2.1-0.1,3.5c0,1.4,0,2.6,0.1,3.5c0,1,0.1,1.7,0.1,2.4
		c0.1,0.6,0.1,1.2,0.2,1.6c0.1,0.5,0.2,0.8,0.3,1.2c0.6,1.7,1.5,2.9,2.6,3.8c1.2,0.9,2.7,1.4,4.7,1.4c1.9,0,3.4-0.4,4.5-1.3
		c1.1-0.9,2.1-2,2.8-3.4c0.1-0.3,0.4-0.4,0.7-0.3l3.1,1.5c0.2,0.1,0.3,0.4,0.2,0.7c-1,2.3-2.5,4-4.4,5.3c-2,1.2-4.2,1.8-6.9,1.8
		c-2.9,0-5.4-0.7-7.4-2.1C148.5,69.4,147.1,67.4,146.2,64.6z"/>
	<path class="st0" d="M196.4,72.3c-0.3,0-0.5-0.2-0.7-0.5l-7-14.4h-7.8c-0.2,0-0.3,0.1-0.3,0.3v14.1c0,0.3-0.2,0.5-0.5,0.5h-3.6
		c-0.4,0-0.5-0.2-0.5-0.5V37.5c0-0.3,0.2-0.5,0.5-0.5h12.8c1.7,0,3.2,0.2,4.5,0.7c1.4,0.5,2.5,1.2,3.5,2.1c1,0.9,1.7,2,2.3,3.2
		c0.5,1.3,0.8,2.7,0.8,4.2c0,2.4-0.6,4.4-1.9,6.1c-1.2,1.7-2.9,2.8-5.1,3.5l7.5,14.9c0.1,0.2,0.1,0.3,0.1,0.4
		c-0.1,0.1-0.2,0.2-0.4,0.2H196.4z M189.1,53c2.1,0,3.7-0.5,4.8-1.5c1.1-1,1.7-2.5,1.7-4.3s-0.6-3.3-1.7-4.3c-1.1-1-2.7-1.5-4.8-1.5
		h-8.2c-0.2,0-0.3,0.1-0.3,0.3v11.1c0,0.2,0.1,0.3,0.3,0.3H189.1z"/>
	<path class="st0" d="M219.6,72.9c-3,0-5.5-0.7-7.6-2.1c-2.1-1.4-3.5-3.4-4.4-6.2c-0.2-0.5-0.3-1.1-0.4-1.6
		c-0.1-0.6-0.2-1.2-0.3-1.9c-0.1-0.7-0.1-1.6-0.2-2.7c0-1-0.1-2.3-0.1-3.7c0-1.5,0-2.7,0.1-3.7c0-1,0.1-1.9,0.2-2.7
		c0.1-0.7,0.2-1.4,0.3-1.9c0.1-0.6,0.3-1.1,0.4-1.6c0.9-2.7,2.4-4.8,4.4-6.2c2.1-1.4,4.6-2.1,7.6-2.1c3,0,5.5,0.7,7.6,2.1
		c2.1,1.4,3.5,3.4,4.4,6.2c0.2,0.5,0.3,1.1,0.4,1.6c0.1,0.6,0.2,1.2,0.3,1.9c0.1,0.7,0.1,1.6,0.2,2.7c0,1,0.1,2.3,0.1,3.7
		c0,1.5,0,2.7-0.1,3.7c0,1-0.1,1.9-0.2,2.7c-0.1,0.7-0.2,1.4-0.3,1.9c-0.1,0.6-0.3,1.1-0.4,1.6c-0.9,2.7-2.4,4.8-4.4,6.2
		C225.1,72.2,222.6,72.9,219.6,72.9z M219.6,68.5c2,0,3.6-0.4,4.8-1.4c1.2-0.9,2.1-2.2,2.7-3.9c0.1-0.3,0.2-0.7,0.3-1.2
		c0.1-0.5,0.2-1,0.3-1.7c0.1-0.7,0.1-1.5,0.2-2.4c0-0.9,0.1-2,0.1-3.3c0-1.3,0-2.4-0.1-3.3c0-0.9-0.1-1.7-0.2-2.4
		c-0.1-0.7-0.2-1.3-0.3-1.7c-0.1-0.5-0.2-0.9-0.3-1.2c-0.6-1.7-1.5-3-2.7-3.9c-1.2-0.9-2.9-1.4-4.8-1.4c-2,0-3.6,0.5-4.8,1.4
		c-1.2,0.9-2.1,2.2-2.7,3.9c-0.1,0.3-0.2,0.7-0.3,1.2c-0.1,0.5-0.2,1-0.3,1.7c-0.1,0.7-0.1,1.5-0.2,2.4c0,0.9-0.1,2-0.1,3.3
		c0,1.3,0,2.4,0.1,3.3c0,0.9,0.1,1.7,0.2,2.4c0.1,0.7,0.2,1.3,0.3,1.7c0.1,0.5,0.2,0.9,0.3,1.2c0.6,1.7,1.4,3,2.7,3.9
		C216,68.1,217.6,68.5,219.6,68.5z"/>
	<path class="st0" d="M265.2,72.3c-0.3,0-0.5-0.2-0.6-0.5l-7.5-26.3H257l-7.5,26.3c-0.1,0.3-0.3,0.5-0.6,0.5H246
		c-0.3,0-0.5-0.2-0.6-0.5l-8.5-34.3c-0.1-0.3,0-0.5,0.4-0.5h3.4c0.4,0,0.6,0.2,0.6,0.5l6.3,26.2h0.1l7.3-26.2
		c0.1-0.3,0.3-0.5,0.6-0.5h2.6c0.3,0,0.5,0.2,0.6,0.5l7.5,26.2h0.1l6.1-26.2c0.1-0.3,0.3-0.5,0.7-0.5h3.4c0.3,0,0.5,0.2,0.4,0.5
		l-8.5,34.3c-0.1,0.3-0.3,0.5-0.6,0.5H265.2z"/>
	<path class="st0" d="M282.8,37.5c0-0.3,0.2-0.5,0.5-0.5h3.3c0.4,0,0.7,0.2,0.9,0.5l16,26.5h0.2V37.5c0-0.3,0.2-0.5,0.5-0.5h3.3
		c0.4,0,0.5,0.2,0.5,0.5v34.3c0,0.3-0.2,0.5-0.5,0.5h-3.3c-0.4,0-0.7-0.2-0.9-0.5l-16-26.4h-0.2v26.4c0,0.3-0.2,0.5-0.5,0.5h-3.3
		c-0.4,0-0.5-0.2-0.5-0.5V37.5z"/>
	<path class="st1" d="M316.3,72.3c-0.3,0-0.5-0.2-0.5-0.5V37.5c0-0.3,0.2-0.5,0.5-0.5H330c1.9,0,3.6,0.3,5.1,0.8
		c1.5,0.6,2.8,1.3,3.9,2.3c1.1,1,1.9,2.2,2.4,3.6c0.6,1.4,0.8,2.9,0.8,4.6c0,1.7-0.3,3.2-0.9,4.6c-0.6,1.4-1.4,2.6-2.4,3.6
		c-1.1,1-2.3,1.8-3.9,2.3c-1.5,0.6-3.2,0.8-5.1,0.8h-6.3c-0.2,0-0.3,0.1-0.3,0.3v11.8c0,0.3-0.2,0.5-0.5,0.5H316.3z M329.5,53.1
		c1.6,0,2.9-0.4,3.8-1.3c0.9-0.8,1.4-2,1.4-3.5c0-1.5-0.5-2.6-1.4-3.5c-0.9-0.9-2.2-1.3-3.8-1.3h-5.8c-0.2,0-0.3,0.1-0.3,0.3v8.9
		c0,0.2,0.1,0.3,0.3,0.3H329.5z"/>
	<path class="st1" d="M347.2,37.5c0-0.3,0.2-0.5,0.5-0.5h6.6c0.3,0,0.5,0.2,0.5,0.5v13.3c0,0.2,0.1,0.3,0.3,0.3h11.5
		c0.2,0,0.3-0.1,0.3-0.3V37.5c0-0.3,0.2-0.5,0.5-0.5h6.6c0.3,0,0.5,0.2,0.5,0.5v34.3c0,0.3-0.2,0.5-0.5,0.5h-6.6
		c-0.3,0-0.5-0.2-0.5-0.5V58.2c0-0.2-0.1-0.3-0.3-0.3h-11.5c-0.2,0-0.3,0.1-0.3,0.3v13.6c0,0.3-0.2,0.5-0.5,0.5h-6.6
		c-0.3,0-0.5-0.2-0.5-0.5V37.5z"/>
	<path class="st1" d="M394.3,72.9c-3.1,0-5.8-0.7-8.1-2.1c-2.3-1.4-3.9-3.6-4.8-6.4c-0.2-0.6-0.4-1.2-0.5-1.8
		c-0.1-0.6-0.2-1.2-0.3-2c-0.1-0.7-0.1-1.6-0.2-2.5c0-0.9-0.1-2.1-0.1-3.4s0-2.4,0.1-3.4c0-0.9,0.1-1.8,0.2-2.5
		c0.1-0.7,0.2-1.4,0.3-2c0.1-0.6,0.3-1.2,0.5-1.8c0.9-2.8,2.5-5,4.8-6.4c2.3-1.4,5-2.2,8.1-2.2s5.8,0.7,8.1,2.2
		c2.3,1.4,3.9,3.6,4.8,6.4c0.2,0.6,0.4,1.2,0.5,1.8c0.1,0.6,0.2,1.2,0.3,2s0.1,1.6,0.2,2.5c0,0.9,0.1,2.1,0.1,3.4s0,2.4-0.1,3.4
		c0,0.9-0.1,1.8-0.2,2.5c-0.1,0.7-0.2,1.4-0.3,2c-0.1,0.6-0.3,1.2-0.5,1.8c-0.9,2.9-2.5,5-4.8,6.4C400,72.1,397.3,72.9,394.3,72.9z
		 M394.3,66.1c1.5,0,2.6-0.3,3.6-1c0.9-0.7,1.6-1.6,2-2.9c0.1-0.3,0.2-0.7,0.3-1.1c0.1-0.4,0.1-0.9,0.2-1.5s0.1-1.3,0.1-2.1
		c0-0.8,0-1.8,0-3c0-1.1,0-2.1,0-3c0-0.8-0.1-1.5-0.1-2.1s-0.1-1.1-0.2-1.5c-0.1-0.4-0.2-0.8-0.3-1.1c-0.4-1.2-1-2.2-2-2.9
		c-0.9-0.7-2.1-1-3.6-1c-1.5,0-2.6,0.3-3.6,1c-0.9,0.7-1.6,1.6-2,2.9c-0.1,0.3-0.2,0.7-0.3,1.1c-0.1,0.4-0.1,0.9-0.2,1.5
		c-0.1,0.6-0.1,1.3-0.1,2.1c0,0.8,0,1.8,0,3c0,1.1,0,2.1,0,3c0,0.8,0.1,1.5,0.1,2.1c0.1,0.6,0.1,1.1,0.2,1.5
		c0.1,0.4,0.2,0.8,0.3,1.1c0.4,1.2,1,2.2,2,2.9C391.6,65.8,392.8,66.1,394.3,66.1z"/>
	<path class="st1" d="M413.9,37.5c0-0.3,0.2-0.5,0.5-0.5h22.6c0.3,0,0.5,0.2,0.5,0.5v5.6c0,0.3-0.2,0.5-0.5,0.5h-15.2
		c-0.2,0-0.3,0.1-0.3,0.3v7c0,0.2,0.1,0.3,0.3,0.3h12.7c0.3,0,0.5,0.2,0.5,0.5v5.5c0,0.3-0.2,0.5-0.5,0.5h-12.7
		c-0.2,0-0.3,0.1-0.3,0.3v7.3c0,0.2,0.1,0.3,0.3,0.3h15.2c0.3,0,0.5,0.2,0.5,0.5v5.6c0,0.3-0.2,0.5-0.5,0.5h-22.6
		c-0.3,0-0.5-0.2-0.5-0.5V37.5z"/>
	<path class="st1" d="M443.3,37.5c0-0.3,0.2-0.5,0.5-0.5h6.2c0.4,0,0.7,0.2,0.9,0.5l12.5,22.2h0.3V37.5c0-0.3,0.2-0.5,0.5-0.5h5.9
		c0.3,0,0.5,0.2,0.5,0.5v34.3c0,0.3-0.2,0.5-0.5,0.5h-6.2c-0.4,0-0.7-0.2-0.9-0.5l-12.5-22.2h-0.3v22.2c0,0.3-0.2,0.5-0.5,0.5h-5.9
		c-0.3,0-0.5-0.2-0.5-0.5V37.5z"/>
	<path class="st1" d="M477.3,37.5c0-0.3,0.2-0.5,0.5-0.5h6.6c0.3,0,0.5,0.2,0.5,0.5v34.3c0,0.3-0.2,0.5-0.5,0.5h-6.6
		c-0.3,0-0.5-0.2-0.5-0.5V37.5z"/>
	<path class="st1" d="M511,72.3c-0.4,0-0.7-0.2-0.9-0.5L503.8,61h-0.2l-6.3,10.7c-0.2,0.3-0.5,0.5-0.9,0.5h-7.2
		c-0.2,0-0.3-0.1-0.4-0.2c-0.1-0.1-0.1-0.3,0.1-0.4l10.5-17.6l-9.8-16.5c-0.1-0.2-0.1-0.3,0-0.4c0.1-0.1,0.2-0.2,0.3-0.2h7.2
		c0.3,0,0.6,0.2,0.8,0.5l5.6,9.6h0.2l5.6-9.6c0.2-0.3,0.5-0.5,0.8-0.5h7.2c0.2,0,0.3,0.1,0.3,0.2c0.1,0.1,0,0.3,0,0.4l-9.9,16.5
		l10.6,17.6c0.1,0.2,0.1,0.3,0,0.4c-0.1,0.1-0.2,0.2-0.3,0.2H511z"/>
</g>
<g>
	<g>
		<path class="st2" d="M147.4,82.3c0-0.2,0.1-0.2,0.2-0.2h1.5c0.2,0,0.3,0.1,0.4,0.2l4.8,10.8h0.1l4.7-10.8c0.1-0.2,0.2-0.2,0.4-0.2
			h1.5c0.2,0,0.2,0.1,0.2,0.2v15.6c0,0.2-0.1,0.2-0.2,0.2h-1.5c-0.2,0-0.2-0.1-0.2-0.2V86.7h-0.1l-4,8.8c-0.1,0.2-0.2,0.3-0.4,0.3
			h-0.9c-0.2,0-0.4-0.1-0.4-0.3l-4-8.8h-0.1v11.2c0,0.2-0.1,0.2-0.2,0.2h-1.5c-0.2,0-0.2-0.1-0.2-0.2V82.3z"/>
		<path class="st2" d="M172.1,98.1c-0.2,0-0.2-0.1-0.2-0.2v-1h0c-0.3,0.4-0.7,0.8-1.2,1.1c-0.6,0.3-1.3,0.4-2.1,0.4
			c-0.5,0-1-0.1-1.5-0.2c-0.5-0.1-0.9-0.4-1.2-0.6c-0.3-0.3-0.6-0.6-0.8-1.1c-0.2-0.4-0.3-0.9-0.3-1.5c0-1.2,0.4-2.1,1.2-2.7
			c0.8-0.6,1.9-0.9,3.2-0.9h2.6c0.1,0,0.1,0,0.1-0.1v-0.8c0-0.8-0.2-1.3-0.6-1.7c-0.4-0.3-1.1-0.5-2.1-0.5c-0.6,0-1.2,0.1-1.6,0.2
			s-0.8,0.3-1.1,0.6c-0.1,0.1-0.3,0.1-0.3,0l-0.6-1.1c-0.1-0.1,0-0.2,0-0.3c0.4-0.3,1-0.6,1.6-0.8c0.6-0.2,1.4-0.3,2.2-0.3
			c1.6,0,2.7,0.3,3.4,0.9s1,1.6,1,3v7.5c0,0.2-0.1,0.2-0.2,0.2H172.1z M168.9,96.7c0.9,0,1.6-0.2,2.1-0.6s0.8-0.9,0.8-1.6v-1.3
			c0-0.1,0-0.1-0.1-0.1h-2.3c-1,0-1.7,0.1-2.2,0.4c-0.4,0.3-0.7,0.8-0.7,1.4c0,0.6,0.2,1,0.6,1.3C167.6,96.5,168.2,96.7,168.9,96.7z
			"/>
		<path class="st2" d="M177.7,98.1c-0.2,0-0.2-0.1-0.2-0.2V87c0-0.2,0.1-0.2,0.2-0.2h1.5c0.2,0,0.2,0.1,0.2,0.2v1.2h0
			c0.3-0.5,0.6-0.9,1.1-1.2c0.5-0.3,1.1-0.5,1.9-0.5c0.5,0,0.9,0.1,1.3,0.2c0.4,0.2,0.7,0.4,1,0.6c0.1,0.1,0.1,0.2,0,0.3l-0.9,1.2
			c-0.1,0.1-0.2,0.1-0.3,0c-0.3-0.2-0.5-0.3-0.8-0.4c-0.3-0.1-0.6-0.1-0.9-0.1c-0.9,0-1.5,0.3-1.9,0.9s-0.6,1.4-0.6,2.4v6.2
			c0,0.2-0.1,0.2-0.2,0.2H177.7z"/>
		<path class="st2" d="M194.7,98.1c-0.2,0-0.3-0.1-0.4-0.2l-3.2-5.3l-2,2.3v3c0,0.2-0.1,0.2-0.2,0.2h-1.5c-0.2,0-0.2-0.1-0.2-0.2
			V82.3c0-0.2,0.1-0.2,0.2-0.2h1.5c0.2,0,0.2,0.1,0.2,0.2v10l4.5-5.3c0.1-0.1,0.3-0.2,0.4-0.2h1.7c0.1,0,0.1,0,0.1,0.1
			c0,0,0,0.1,0,0.2l-3.5,4l4.2,6.8c0,0,0,0.1,0,0.2c0,0.1-0.1,0.1-0.2,0.1H194.7z"/>
		<path class="st2" d="M203.5,98.4c-1.1,0-2.1-0.3-2.9-0.8c-0.8-0.5-1.3-1.3-1.6-2.3c-0.1-0.4-0.2-0.8-0.3-1.2
			c-0.1-0.4-0.1-1-0.1-1.7c0-0.7,0-1.2,0.1-1.7c0.1-0.4,0.1-0.8,0.3-1.2c0.3-1,0.9-1.7,1.6-2.3s1.7-0.8,2.8-0.8c1.1,0,2,0.3,2.8,0.8
			c0.8,0.5,1.3,1.3,1.6,2.3c0.1,0.2,0.1,0.4,0.2,0.6c0,0.2,0.1,0.4,0.1,0.7s0.1,0.5,0.1,0.9c0,0.3,0,0.7,0,1.1
			c0,0.2-0.1,0.2-0.3,0.2h-7.2c-0.1,0-0.1,0-0.1,0.1c0,0.3,0,0.6,0,0.8c0,0.2,0.1,0.4,0.1,0.6c0.2,0.7,0.6,1.2,1.1,1.5
			c0.5,0.3,1.1,0.5,1.8,0.5c0.7,0,1.3-0.1,1.7-0.4c0.5-0.2,0.9-0.5,1.2-0.9c0.1-0.1,0.2-0.1,0.4,0l1,0.9c0.1,0.1,0.1,0.2,0,0.3
			c-0.5,0.6-1.1,1-1.8,1.4S204.5,98.4,203.5,98.4z M206,91.5c0.1,0,0.1,0,0.1-0.1c0-0.5-0.1-0.9-0.2-1.3c-0.2-0.6-0.5-1-1-1.3
			c-0.4-0.3-1-0.5-1.6-0.5c-0.6,0-1.2,0.2-1.6,0.5s-0.8,0.7-1,1.3c-0.1,0.3-0.2,0.8-0.2,1.3c0,0.1,0,0.1,0.1,0.1H206z"/>
		<path class="st2" d="M214.6,98.2c-1.1,0-1.9-0.3-2.4-0.8c-0.5-0.5-0.7-1.3-0.7-2.4v-6.5c0-0.1,0-0.1-0.1-0.1h-0.9
			c-0.2,0-0.2-0.1-0.2-0.2V87c0-0.2,0.1-0.2,0.2-0.2h0.9c0.1,0,0.1,0,0.1-0.1v-3.2c0-0.2,0.1-0.2,0.2-0.2h1.5c0.2,0,0.2,0.1,0.2,0.2
			v3.2c0,0.1,0,0.1,0.1,0.1h1.8c0.2,0,0.2,0.1,0.2,0.2v1.1c0,0.2-0.1,0.2-0.2,0.2h-1.8c-0.1,0-0.1,0-0.1,0.1v6.4
			c0,0.6,0.1,0.9,0.3,1.1c0.2,0.2,0.6,0.3,1.1,0.3h0.5c0.2,0,0.2,0.1,0.2,0.2V98c0,0.2-0.1,0.2-0.2,0.2H214.6z"/>
		<path class="st2" d="M219,84.2c-0.2,0-0.2-0.1-0.2-0.2v-1.7c0-0.2,0.1-0.2,0.2-0.2h1.6c0.2,0,0.2,0.1,0.2,0.2V84
			c0,0.2-0.1,0.2-0.2,0.2H219z M219.1,98.1c-0.2,0-0.2-0.1-0.2-0.2V87c0-0.2,0.1-0.2,0.2-0.2h1.5c0.2,0,0.2,0.1,0.2,0.2v10.8
			c0,0.2-0.1,0.2-0.2,0.2H219.1z"/>
		<path class="st2" d="M232,98.1c-0.2,0-0.2-0.1-0.2-0.2v-6.6c0-0.9-0.2-1.6-0.6-2.1s-1.1-0.8-1.9-0.8c-0.8,0-1.4,0.2-1.9,0.7
			c-0.5,0.5-0.7,1.2-0.7,2v6.7c0,0.2-0.1,0.2-0.2,0.2h-1.5c-0.2,0-0.2-0.1-0.2-0.2V87c0-0.2,0.1-0.2,0.2-0.2h1.5
			c0.2,0,0.2,0.1,0.2,0.2v1h0c0.3-0.4,0.7-0.8,1.2-1.1c0.5-0.3,1.2-0.4,2-0.4c1.2,0,2.2,0.4,2.9,1.2c0.7,0.8,1,1.8,1,3.1v7.1
			c0,0.2-0.1,0.2-0.2,0.2H232z"/>
		<path class="st2" d="M241.2,102.6c-0.8,0-1.6-0.2-2.3-0.5c-0.7-0.3-1.3-0.7-1.6-1.2c-0.1-0.1-0.1-0.2,0-0.3l1-1
			c0.1-0.1,0.2-0.1,0.4,0c0.4,0.4,0.8,0.6,1.2,0.8c0.4,0.2,0.9,0.3,1.5,0.3c0.9,0,1.7-0.2,2.1-0.7s0.7-1.3,0.7-2.3v-1.3h0
			c-0.3,0.5-0.6,0.9-1.1,1.1s-1.2,0.4-2,0.4c-1,0-1.8-0.2-2.4-0.7c-0.6-0.5-1.1-1.1-1.4-2c-0.1-0.4-0.2-0.9-0.3-1.3
			c-0.1-0.4-0.1-1-0.1-1.7c0-0.7,0-1.2,0.1-1.7c0.1-0.4,0.2-0.9,0.3-1.3c0.3-0.9,0.7-1.6,1.4-2c0.6-0.5,1.4-0.7,2.4-0.7
			c0.8,0,1.5,0.1,2,0.4s0.9,0.7,1.1,1.1h0V87c0-0.2,0.1-0.2,0.2-0.2h1.5c0.2,0,0.2,0.1,0.2,0.2v10.6c0,1.6-0.4,2.9-1.3,3.7
			C244,102.2,242.8,102.6,241.2,102.6z M241.5,96.1c1.2,0,2-0.6,2.4-1.7c0.1-0.3,0.2-0.6,0.2-0.9c0-0.3,0.1-0.8,0.1-1.2
			c0-0.5,0-0.9-0.1-1.2s-0.1-0.7-0.2-1c-0.4-1.1-1.2-1.7-2.4-1.7c-1.2,0-2,0.6-2.4,1.7c-0.1,0.3-0.2,0.6-0.2,1s-0.1,0.8-0.1,1.2
			c0,0.9,0.1,1.6,0.3,2.2C239.5,95.6,240.3,96.1,241.5,96.1z"/>
		<path class="st2" d="M255.6,94.6c-0.1-0.2-0.1-0.5-0.2-0.7c-0.1-0.2-0.1-0.5-0.1-0.9c0-0.3-0.1-0.7-0.1-1.2c0-0.5,0-1,0-1.7
			c0-0.7,0-1.2,0-1.7c0-0.5,0-0.9,0.1-1.2c0-0.3,0.1-0.6,0.1-0.9c0.1-0.2,0.1-0.5,0.2-0.7c0.4-1.3,1.1-2.2,2-2.8
			c0.9-0.6,2-0.9,3.4-0.9c1.2,0,2.2,0.3,3.1,0.8c0.9,0.6,1.6,1.4,2,2.4c0,0.1,0,0.2-0.1,0.3l-1.4,0.7c-0.2,0.1-0.3,0-0.3-0.1
			c-0.3-0.6-0.7-1.1-1.3-1.5c-0.5-0.4-1.2-0.6-2.1-0.6c-0.9,0-1.6,0.2-2.1,0.6s-0.9,1-1.2,1.7c0,0.2-0.1,0.4-0.1,0.6
			c0,0.2-0.1,0.4-0.1,0.7c0,0.3,0,0.7-0.1,1.1c0,0.4,0,1,0,1.6c0,0.6,0,1.2,0,1.6c0,0.4,0,0.8,0.1,1.1c0,0.3,0.1,0.5,0.1,0.7
			c0,0.2,0.1,0.4,0.1,0.5c0.3,0.8,0.7,1.3,1.2,1.7c0.5,0.4,1.2,0.6,2.1,0.6c0.9,0,1.5-0.2,2.1-0.6c0.5-0.4,0.9-0.9,1.3-1.5
			c0.1-0.2,0.2-0.2,0.3-0.1l1.4,0.7c0.1,0.1,0.1,0.2,0.1,0.3c-0.5,1-1.1,1.8-2,2.4c-0.9,0.6-1.9,0.8-3.1,0.8c-1.3,0-2.4-0.3-3.4-0.9
			S256,95.9,255.6,94.6z"/>
		<path class="st2" d="M273.2,98.4c-1.1,0-2-0.3-2.8-0.8c-0.8-0.5-1.3-1.3-1.6-2.2c-0.1-0.4-0.2-0.8-0.3-1.2c-0.1-0.4-0.1-1-0.1-1.6
			c0-0.7,0-1.2,0.1-1.6c0.1-0.4,0.2-0.8,0.3-1.2c0.3-1,0.9-1.7,1.6-2.3c0.8-0.5,1.7-0.8,2.8-0.8s2,0.3,2.8,0.8
			c0.8,0.5,1.3,1.3,1.6,2.3c0.1,0.4,0.2,0.8,0.3,1.2c0.1,0.4,0.1,1,0.1,1.6c0,0.7,0,1.2-0.1,1.6c-0.1,0.4-0.2,0.8-0.3,1.2
			c-0.3,1-0.9,1.7-1.6,2.2C275.3,98.1,274.3,98.4,273.2,98.4z M273.2,96.5c0.6,0,1.2-0.2,1.6-0.5c0.4-0.3,0.8-0.7,0.9-1.3
			c0.1-0.3,0.2-0.6,0.2-1c0-0.3,0.1-0.8,0.1-1.3s0-1-0.1-1.3c0-0.3-0.1-0.7-0.2-1c-0.2-0.6-0.5-1-0.9-1.3c-0.4-0.3-1-0.5-1.6-0.5
			s-1.2,0.2-1.6,0.5c-0.4,0.3-0.8,0.7-0.9,1.3c-0.1,0.3-0.2,0.6-0.2,1c0,0.3-0.1,0.8-0.1,1.3s0,1,0.1,1.3c0,0.3,0.1,0.7,0.2,1
			c0.2,0.6,0.5,1,0.9,1.3C272.1,96.4,272.6,96.5,273.2,96.5z"/>
		<path class="st2" d="M288.6,98.1c-0.2,0-0.2-0.1-0.2-0.2v-6.6c0-0.9-0.2-1.6-0.6-2.1s-1.1-0.8-1.9-0.8c-0.8,0-1.4,0.2-1.9,0.7
			c-0.5,0.5-0.7,1.2-0.7,2v6.7c0,0.2-0.1,0.2-0.2,0.2h-1.5c-0.2,0-0.2-0.1-0.2-0.2V87c0-0.2,0.1-0.2,0.2-0.2h1.5
			c0.2,0,0.2,0.1,0.2,0.2v1h0c0.3-0.4,0.7-0.8,1.2-1.1c0.5-0.3,1.2-0.4,2-0.4c1.2,0,2.2,0.4,2.9,1.2c0.7,0.8,1,1.8,1,3.1v7.1
			c0,0.2-0.1,0.2-0.2,0.2H288.6z"/>
		<path class="st2" d="M298,98.4c-0.6,0-1.1-0.1-1.5-0.2s-0.9-0.2-1.3-0.4c-0.4-0.2-0.7-0.3-1-0.5c-0.3-0.2-0.6-0.4-0.8-0.6
			c-0.1-0.1-0.1-0.2,0-0.3l1-1c0.1-0.1,0.2-0.1,0.3,0c0.4,0.4,0.9,0.7,1.5,0.9s1.3,0.4,1.9,0.4c0.8,0,1.5-0.2,1.9-0.5
			c0.4-0.3,0.6-0.7,0.6-1.2c0-0.4-0.1-0.8-0.4-1.1s-0.9-0.4-1.8-0.5l-1.2-0.1c-1.1-0.1-2-0.5-2.5-1s-0.9-1.3-0.9-2.2
			c0-1.1,0.4-1.9,1.1-2.5s1.8-0.9,3.1-0.9c0.8,0,1.6,0.1,2.3,0.4c0.7,0.2,1.3,0.5,1.7,0.9c0.1,0.1,0.1,0.2,0,0.3l-0.8,1
			c-0.1,0.1-0.2,0.1-0.3,0c-0.4-0.2-0.8-0.4-1.4-0.6s-1.1-0.3-1.7-0.3c-0.7,0-1.2,0.1-1.6,0.4c-0.4,0.3-0.5,0.7-0.5,1.1
			c0,0.5,0.2,0.8,0.5,1.1s0.9,0.4,1.8,0.5l1.2,0.1c1.2,0.1,2,0.4,2.6,1c0.6,0.6,0.8,1.3,0.8,2.2c0,1.1-0.4,2-1.2,2.7
			C300.6,98,299.5,98.4,298,98.4z"/>
		<path class="st2" d="M312.8,98.1c-0.2,0-0.2-0.1-0.2-0.2v-1.1h0c-0.3,0.5-0.7,0.9-1.2,1.1c-0.5,0.3-1.1,0.4-1.9,0.4
			c-1.2,0-2.2-0.4-2.9-1.2c-0.7-0.8-1-1.8-1-3.1V87c0-0.2,0.1-0.2,0.2-0.2h1.5c0.2,0,0.2,0.1,0.2,0.2v6.6c0,0.9,0.2,1.6,0.6,2.2
			s1,0.8,1.9,0.8c0.8,0,1.4-0.3,1.9-0.8s0.7-1.2,0.7-2V87c0-0.2,0.1-0.2,0.2-0.2h1.5c0.2,0,0.2,0.1,0.2,0.2v10.8
			c0,0.2-0.1,0.2-0.2,0.2H312.8z"/>
		<path class="st2" d="M321.1,98.2c-1,0-1.7-0.2-2.1-0.7s-0.6-1.2-0.6-2.3v-13c0-0.2,0.1-0.2,0.2-0.2h1.5c0.2,0,0.2,0.1,0.2,0.2
			v12.9c0,0.5,0.1,0.8,0.3,1c0.2,0.2,0.5,0.3,0.9,0.3h0.4c0.2,0,0.2,0.1,0.2,0.2V98c0,0.2-0.1,0.2-0.2,0.2H321.1z"/>
		<path class="st2" d="M328.2,98.2c-1.1,0-1.9-0.3-2.4-0.8c-0.5-0.5-0.7-1.3-0.7-2.4v-6.5c0-0.1,0-0.1-0.1-0.1h-0.9
			c-0.2,0-0.2-0.1-0.2-0.2V87c0-0.2,0.1-0.2,0.2-0.2h0.9c0.1,0,0.1,0,0.1-0.1v-3.2c0-0.2,0.1-0.2,0.2-0.2h1.5c0.2,0,0.2,0.1,0.2,0.2
			v3.2c0,0.1,0,0.1,0.1,0.1h1.8c0.2,0,0.2,0.1,0.2,0.2v1.1c0,0.2-0.1,0.2-0.2,0.2h-1.8c-0.1,0-0.1,0-0.1,0.1v6.4
			c0,0.6,0.1,0.9,0.3,1.1c0.2,0.2,0.6,0.3,1.1,0.3h0.5c0.2,0,0.2,0.1,0.2,0.2V98c0,0.2-0.1,0.2-0.2,0.2H328.2z"/>
		<path class="st2" d="M339.3,98.1c-0.2,0-0.2-0.1-0.2-0.2v-1h0c-0.3,0.4-0.7,0.8-1.2,1.1c-0.6,0.3-1.3,0.4-2.1,0.4
			c-0.5,0-1-0.1-1.5-0.2c-0.5-0.1-0.9-0.4-1.2-0.6c-0.3-0.3-0.6-0.6-0.8-1.1c-0.2-0.4-0.3-0.9-0.3-1.5c0-1.2,0.4-2.1,1.2-2.7
			c0.8-0.6,1.9-0.9,3.2-0.9h2.6c0.1,0,0.1,0,0.1-0.1v-0.8c0-0.8-0.2-1.3-0.6-1.7c-0.4-0.3-1.1-0.5-2.1-0.5c-0.6,0-1.2,0.1-1.6,0.2
			s-0.8,0.3-1.1,0.6c-0.1,0.1-0.3,0.1-0.3,0l-0.6-1.1c-0.1-0.1,0-0.2,0-0.3c0.4-0.3,1-0.6,1.6-0.8c0.6-0.2,1.4-0.3,2.2-0.3
			c1.6,0,2.7,0.3,3.4,0.9s1,1.6,1,3v7.5c0,0.2-0.1,0.2-0.2,0.2H339.3z M336.1,96.7c0.9,0,1.6-0.2,2.1-0.6s0.8-0.9,0.8-1.6v-1.3
			c0-0.1,0-0.1-0.1-0.1h-2.3c-1,0-1.7,0.1-2.2,0.4c-0.4,0.3-0.7,0.8-0.7,1.4c0,0.6,0.2,1,0.6,1.3C334.8,96.5,335.4,96.7,336.1,96.7z
			"/>
		<path class="st2" d="M352,98.1c-0.2,0-0.2-0.1-0.2-0.2v-6.6c0-0.9-0.2-1.6-0.6-2.1c-0.4-0.5-1.1-0.8-1.9-0.8
			c-0.8,0-1.4,0.2-1.9,0.7s-0.7,1.2-0.7,2v6.7c0,0.2-0.1,0.2-0.2,0.2h-1.5c-0.2,0-0.2-0.1-0.2-0.2V87c0-0.2,0.1-0.2,0.2-0.2h1.5
			c0.2,0,0.2,0.1,0.2,0.2v1h0c0.3-0.4,0.7-0.8,1.2-1.1c0.5-0.3,1.2-0.4,2-0.4c1.2,0,2.2,0.4,2.9,1.2c0.7,0.8,1,1.8,1,3.1v7.1
			c0,0.2-0.1,0.2-0.2,0.2H352z"/>
		<path class="st2" d="M356.9,92.4c0-0.6,0-1.2,0.1-1.6c0.1-0.5,0.1-0.9,0.3-1.2c0.3-1,0.9-1.7,1.7-2.3c0.8-0.5,1.7-0.8,2.8-0.8
			c0.9,0,1.6,0.2,2.3,0.5s1.2,0.8,1.6,1.4c0.1,0.1,0.1,0.2-0.1,0.3l-1,0.9c-0.1,0.1-0.2,0.1-0.3,0c-0.3-0.4-0.7-0.7-1-0.9
			c-0.4-0.2-0.8-0.3-1.4-0.3c-0.6,0-1.1,0.1-1.6,0.4c-0.4,0.3-0.8,0.7-0.9,1.3c-0.1,0.3-0.2,0.6-0.2,1s-0.1,0.8-0.1,1.3
			s0,0.9,0.1,1.3c0,0.4,0.1,0.7,0.2,1c0.2,0.6,0.5,1,0.9,1.3c0.4,0.3,1,0.4,1.6,0.4c0.6,0,1-0.1,1.4-0.3c0.4-0.2,0.7-0.5,1-0.9
			c0.1-0.1,0.2-0.1,0.3,0l1,0.9c0.1,0.1,0.1,0.2,0.1,0.3c-0.4,0.6-0.9,1.1-1.6,1.4s-1.4,0.5-2.3,0.5c-1.1,0-2-0.3-2.8-0.8
			c-0.8-0.5-1.3-1.3-1.7-2.3c-0.1-0.3-0.2-0.8-0.3-1.2C356.9,93.6,356.9,93.1,356.9,92.4z"/>
		<path class="st2" d="M368.8,102.4c-0.2,0-0.2-0.1-0.2-0.2v-1.4c0-0.2,0.1-0.2,0.2-0.2h0.4c0.5,0,0.8-0.1,1.1-0.4
			c0.3-0.2,0.6-0.7,0.8-1.3l0.4-1L367.3,87c0-0.2,0-0.2,0.2-0.2h1.7c0.1,0,0.2,0.1,0.3,0.2l3,8.2h0l2.9-8.2c0-0.2,0.1-0.2,0.3-0.2
			h1.6c0.2,0,0.2,0.1,0.2,0.2L373,99c-0.3,0.7-0.5,1.2-0.7,1.7c-0.2,0.4-0.5,0.8-0.8,1s-0.6,0.4-0.9,0.5s-0.7,0.2-1.1,0.2H368.8z"/>
		<path class="st2" d="M385.7,82.3c0-0.2,0.1-0.2,0.2-0.2h1.6c0.2,0,0.2,0.1,0.2,0.2V96c0,0.1,0,0.1,0.1,0.1h7.7
			c0.2,0,0.2,0.1,0.2,0.2v1.5c0,0.2-0.1,0.2-0.2,0.2h-9.7c-0.2,0-0.2-0.1-0.2-0.2V82.3z"/>
		<path class="st2" d="M398.1,95.8c0-0.2,0.1-0.2,0.2-0.2h1.8c0.2,0,0.2,0.1,0.2,0.2v2c0,0.2-0.1,0.2-0.2,0.2h-1.8
			c-0.2,0-0.2-0.1-0.2-0.2V95.8z"/>
		<path class="st2" d="M404,82.3c0-0.2,0.1-0.2,0.2-0.2h1.6c0.2,0,0.2,0.1,0.2,0.2V96c0,0.1,0,0.1,0.1,0.1h7.7
			c0.2,0,0.2,0.1,0.2,0.2v1.5c0,0.2-0.1,0.2-0.2,0.2h-9.7c-0.2,0-0.2-0.1-0.2-0.2V82.3z"/>
		<path class="st2" d="M416.3,95.8c0-0.2,0.1-0.2,0.2-0.2h1.8c0.2,0,0.2,0.1,0.2,0.2v2c0,0.2-0.1,0.2-0.2,0.2h-1.8
			c-0.2,0-0.2-0.1-0.2-0.2V95.8z"/>
		<path class="st2" d="M422.1,94.6c-0.1-0.2-0.1-0.5-0.2-0.7c-0.1-0.2-0.1-0.5-0.1-0.9c0-0.3-0.1-0.7-0.1-1.2c0-0.5,0-1,0-1.7
			c0-0.7,0-1.2,0-1.7c0-0.5,0-0.9,0.1-1.2s0.1-0.6,0.1-0.9c0.1-0.2,0.1-0.5,0.2-0.7c0.4-1.3,1.1-2.2,2-2.8c0.9-0.6,2-0.9,3.4-0.9
			c1.2,0,2.2,0.3,3.1,0.8c0.9,0.6,1.6,1.4,2,2.4c0,0.1,0,0.2-0.1,0.3l-1.4,0.7c-0.2,0.1-0.3,0-0.3-0.1c-0.3-0.6-0.7-1.1-1.3-1.5
			c-0.5-0.4-1.2-0.6-2.1-0.6c-0.9,0-1.6,0.2-2.1,0.6s-0.9,1-1.2,1.7c0,0.2-0.1,0.4-0.1,0.6s-0.1,0.4-0.1,0.7c0,0.3,0,0.7-0.1,1.1
			c0,0.4,0,1,0,1.6c0,0.6,0,1.2,0,1.6c0,0.4,0,0.8,0.1,1.1c0,0.3,0.1,0.5,0.1,0.7c0,0.2,0.1,0.4,0.1,0.5c0.3,0.8,0.7,1.3,1.2,1.7
			c0.5,0.4,1.2,0.6,2.1,0.6c0.9,0,1.5-0.2,2.1-0.6c0.5-0.4,0.9-0.9,1.3-1.5c0.1-0.2,0.2-0.2,0.3-0.1l1.4,0.7
			c0.1,0.1,0.1,0.2,0.1,0.3c-0.5,1-1.1,1.8-2,2.4c-0.9,0.6-1.9,0.8-3.1,0.8c-1.3,0-2.4-0.3-3.4-0.9S422.5,95.9,422.1,94.6z"/>
		<path class="st2" d="M435.3,95.8c0-0.2,0.1-0.2,0.2-0.2h1.8c0.2,0,0.2,0.1,0.2,0.2v2c0,0.2-0.1,0.2-0.2,0.2h-1.8
			c-0.2,0-0.2-0.1-0.2-0.2V95.8z"/>
	</g>
</g>
<g>
	<linearGradient id="SVGID_1_" gradientUnits="userSpaceOnUse" x1="43.9345" y1="61.1586" x2="19.9484" y2="107.2636">
		<stop  offset="0" style="stop-color:#221F1F"/>
		<stop  offset="0.9992" style="stop-color:#D73651"/>
	</linearGradient>
	<path class="st3" d="M14.7,101.3c4.4-16.1,13.8-29.7,26.1-39.4c-6.4,8.7-11.1,19-13.3,30.3c-1.5,7.5-1.8,14.9-1,22.1
		C22,110.5,18,106.2,14.7,101.3z"/>
	<g>
		<linearGradient id="SVGID_2_" gradientUnits="userSpaceOnUse" x1="74.7257" y1="57.5617" x2="62.7873" y2="17.8895">
			<stop  offset="0" style="stop-color:#221F1F"/>
			<stop  offset="0.9992" style="stop-color:#D73651"/>
		</linearGradient>
		<path class="st4" d="M78.8,40.6c6.5,0,11.4,2.8,14,5.1c1-3.5,1.7-7.1,2.1-10.6c-1.8-14-10.3-25.8-14.3-30.6
			c-16-3.5-33.1-0.3-46.9,8.7c5,0.9,11.3,3.5,17.8,7.4c9.4,5.7,17.3,13.2,21.8,20.7C75.3,40.8,77.1,40.6,78.8,40.6z"/>
	</g>
	<linearGradient id="SVGID_3_" gradientUnits="userSpaceOnUse" x1="66.4884" y1="69.3073" x2="105.9769" y2="35.1451">
		<stop  offset="0" style="stop-color:#221F1F"/>
		<stop  offset="0.9992" style="stop-color:#D73651"/>
	</linearGradient>
	<path class="st5" d="M128.6,46C120.9,71.1,93,91,66.4,75c6-1.4,13-5,17.5-9.7h0C98.5,53.1,99.7,17,92,6.3
		C109.7,13.6,122.9,28.3,128.6,46z"/>
	<linearGradient id="SVGID_4_" gradientUnits="userSpaceOnUse" x1="70.4484" y1="65.5561" x2="77.4278" y2="118.2687">
		<stop  offset="0" style="stop-color:#221F1F"/>
		<stop  offset="0.9992" style="stop-color:#D73651"/>
	</linearGradient>
	<path class="st6" d="M106.8,116c-13.8,10.7-32,15.7-50.5,12.4C43,113,41.6,87,54.1,70.1c0,0,0,0,0,0.1c0.6-1,1.4-1.9,2.1-2.8
		c0.2-0.3,0.5-0.6,0.7-0.9c0.3,0.4,0.7,0.8,1.1,1.3C53.7,92.7,89.6,117.4,106.8,116z"/>
	<g>
		<linearGradient id="SVGID_5_" gradientUnits="userSpaceOnUse" x1="79.1408" y1="65.9784" x2="65.5494" y2="40.8159">
			<stop  offset="0" style="stop-color:#221F1F"/>
			<stop  offset="0.9992" style="stop-color:#D73651"/>
		</linearGradient>
		<path class="st7" d="M57.8,65.5c2.6,3,5.1,5.2,8.3,7.3c5.2-1.3,10.8-4.2,14.5-7.5v0L81,65c6.2-5,8.6-10.2,10.4-15.5
			C78.4,50.1,67.1,55.5,57.8,65.5z"/>
	</g>
	<g>
		<linearGradient id="SVGID_6_" gradientUnits="userSpaceOnUse" x1="63.3386" y1="61.6291" x2="117.8879" y2="88.4446">
			<stop  offset="0" style="stop-color:#221F1F"/>
			<stop  offset="0.9992" style="stop-color:#D73651"/>
		</linearGradient>
		<path class="st8" d="M59.3,71.5c-0.1,9.5,5.6,19.8,15.4,27c11.2,8.3,26.3,11.5,39.4,8.5c7.5-8.3,12.6-18.6,14.7-29.6l0,0
			c1-5,1.3-10.1,1.1-15.2c-8.4,10.6-24,18.8-39.2,20.3C78.1,83.6,66.4,78.1,59.3,71.5z"/>
	</g>
	<linearGradient id="SVGID_7_" gradientUnits="userSpaceOnUse" x1="74.8239" y1="62.5851" x2="19.5399" y2="46.2387">
		<stop  offset="0" style="stop-color:#221F1F"/>
		<stop  offset="0.9992" style="stop-color:#D73651"/>
	</linearGradient>
	<path class="st9" d="M62,46.7c4.6-1.9,8.5-3.1,11.8-3.7c-0.4,0.1-0.8,0.2-1.2,0.2c-1.3-2.5-3-5-5.2-7.5c-3.2-3.7-6.4-6.8-9.6-9.3
		c-14.3-6.9-30.8-5.1-37.4-3.9C12.7,30.8,7.2,41.3,4.9,53.2c-1.3,6.9-1.5,13.7-0.7,20.3C7.1,69.2,16.2,58,34.7,52.8
		c-0.8-0.2-1.5-0.4-2.4-0.6c-15.6-3-15.8-15-15.8-15s7.8,6,27.9,1.2c20.1-4.8,24.9,2.7,24.9,2.7C64.7,41.1,62.1,46.3,62,46.7z
		 M47,29.2c-1.5,0.2-3.1,0.6-4.7,1.1c-3.9-1.5-7.5-3.7-10.9-6.8C31.4,23.5,39.2,27.3,47,29.2z M37.6,31.3c-2.7,0.4-5.6,0.4-8.4,0.3
		c-2.5-1-5-2.3-7.5-4C21.7,27.6,29.7,30.4,37.6,31.3z M44.6,34.7c-10.3,3-18.9,2.7-28-1.6c0,0,15,2.6,23.9,0
		c9.3-2.8,16.1-1.9,20.5,0.8C61,33.9,54.9,31.6,44.6,34.7z"/>
</g>
<path class="st10" d="M514,82h-71.8c-1.8,0-3.2,1.4-3.2,3.2v10.9c0,1.8,1.4,3.2,3.2,3.2H514c1.8,0,3.2-1.4,3.2-3.2V85.2
	C517.2,83.4,515.8,82,514,82z"/>
<g>
	<g>
		<path class="st11" d="M443.9,86.3c0-0.1,0.1-0.1,0.2-0.1h0.9c0.1,0,0.1,0,0.2,0.1l3.1,8.7c0,0.1,0,0.1-0.1,0.1h-0.9
			c-0.1,0-0.1,0-0.2-0.1l-0.7-1.9h-3.6L442,95c0,0.1-0.1,0.1-0.2,0.1h-0.9c-0.1,0-0.1,0-0.1-0.1L443.9,86.3z M445.9,91.9l-1.4-4.1h0
			l-1.4,4.1H445.9z"/>
		<path class="st11" d="M449.7,95.1c-0.1,0-0.1,0-0.1-0.1v-8.7c0-0.1,0-0.1,0.1-0.1h0.8c0.1,0,0.1,0,0.1,0.1v3.2h0
			c0.1-0.3,0.4-0.5,0.7-0.6c0.3-0.2,0.7-0.2,1.1-0.2c0.6,0,1,0.1,1.4,0.4c0.4,0.3,0.6,0.6,0.8,1.1c0.1,0.3,0.1,0.5,0.2,0.8
			c0,0.3,0,0.6,0,1c0,0.4,0,0.7,0,1c0,0.3-0.1,0.5-0.2,0.8c-0.2,0.5-0.4,0.9-0.8,1.1c-0.4,0.3-0.8,0.4-1.4,0.4
			c-0.5,0-0.9-0.1-1.1-0.2c-0.3-0.2-0.5-0.4-0.7-0.6h0V95c0,0.1,0,0.1-0.1,0.1H449.7z M452.2,94.2c0.7,0,1.2-0.3,1.4-1
			c0.1-0.2,0.1-0.4,0.1-0.6c0-0.2,0-0.5,0-0.8c0-0.3,0-0.5,0-0.7c0-0.2-0.1-0.4-0.1-0.6c-0.2-0.6-0.7-0.9-1.4-0.9
			c-0.7,0-1.2,0.3-1.4,0.9c-0.1,0.2-0.1,0.3-0.1,0.5c0,0.2,0,0.5,0,0.8c0,0.3,0,0.6,0,0.8c0,0.2,0.1,0.4,0.1,0.5
			C451,93.9,451.5,94.2,452.2,94.2z"/>
		<path class="st11" d="M460.6,95.1c-0.1,0-0.1,0-0.1-0.1v-0.6h0c-0.2,0.3-0.4,0.5-0.7,0.6c-0.3,0.2-0.6,0.2-1,0.2
			c-0.7,0-1.2-0.2-1.6-0.7c-0.4-0.4-0.6-1-0.6-1.7v-3.9c0-0.1,0-0.1,0.1-0.1h0.8c0.1,0,0.1,0,0.1,0.1v3.7c0,0.5,0.1,0.9,0.3,1.2
			c0.2,0.3,0.6,0.4,1.1,0.4c0.4,0,0.8-0.1,1-0.4c0.3-0.3,0.4-0.7,0.4-1.1v-3.7c0-0.1,0-0.1,0.1-0.1h0.8c0.1,0,0.1,0,0.1,0.1v6
			c0,0.1,0,0.1-0.1,0.1H460.6z"/>
		<path class="st11" d="M466.9,86.3c0-0.1,0-0.1,0.1-0.1h3c1.5,0,2.5,0.6,2.9,1.9c0,0.1,0.1,0.2,0.1,0.4c0,0.1,0.1,0.3,0.1,0.5
			c0,0.2,0,0.4,0,0.7s0,0.6,0,1c0,0.4,0,0.7,0,1c0,0.3,0,0.5,0,0.7c0,0.2,0,0.4-0.1,0.5c0,0.1-0.1,0.3-0.1,0.4
			c-0.4,1.3-1.4,1.9-2.9,1.9h-3c-0.1,0-0.1,0-0.1-0.1V86.3z M468.1,93.9C468.1,94,468.1,94,468.1,93.9l1.7,0.1c0.5,0,1-0.1,1.3-0.3
			c0.3-0.2,0.6-0.5,0.7-0.9c0-0.1,0.1-0.2,0.1-0.3s0-0.2,0.1-0.4c0-0.2,0-0.4,0-0.6c0-0.2,0-0.5,0-0.9c0-0.4,0-0.6,0-0.9
			c0-0.2,0-0.4,0-0.6c0-0.2,0-0.3-0.1-0.4c0-0.1-0.1-0.2-0.1-0.3c-0.1-0.4-0.4-0.8-0.7-0.9c-0.3-0.2-0.8-0.3-1.3-0.3h-1.6
			c-0.1,0-0.1,0-0.1,0.1V93.9z"/>
		<path class="st11" d="M479.2,95.1c-0.1,0-0.1,0-0.1-0.1v-3.7c0-0.5-0.1-0.9-0.3-1.2c-0.2-0.3-0.6-0.4-1.1-0.4
			c-0.4,0-0.8,0.1-1,0.4c-0.3,0.3-0.4,0.7-0.4,1.1V95c0,0.1,0,0.1-0.1,0.1h-0.8c-0.1,0-0.1,0-0.1-0.1v-8.7c0-0.1,0-0.1,0.1-0.1h0.8
			c0.1,0,0.1,0,0.1,0.1v3.2h0c0.1-0.2,0.4-0.5,0.7-0.6c0.3-0.2,0.7-0.2,1.1-0.2c0.7,0,1.2,0.2,1.6,0.6c0.4,0.4,0.6,1,0.6,1.7V95
			c0,0.1,0,0.1-0.1,0.1H479.2z"/>
		<path class="st11" d="M486.1,95.1c-0.1,0-0.1,0-0.1-0.1v-0.6h0c-0.1,0.2-0.4,0.4-0.7,0.6c-0.3,0.2-0.7,0.2-1.2,0.2
			c-0.3,0-0.6,0-0.8-0.1c-0.3-0.1-0.5-0.2-0.7-0.4c-0.2-0.2-0.3-0.4-0.4-0.6c-0.1-0.2-0.2-0.5-0.2-0.8c0-0.7,0.2-1.2,0.7-1.5
			c0.4-0.3,1-0.5,1.8-0.5h1.4c0.1,0,0.1,0,0.1-0.1v-0.5c0-0.4-0.1-0.7-0.3-0.9c-0.2-0.2-0.6-0.3-1.2-0.3c-0.4,0-0.7,0-0.9,0.1
			c-0.2,0.1-0.4,0.2-0.6,0.3c-0.1,0.1-0.1,0.1-0.2,0l-0.4-0.6c0-0.1,0-0.1,0-0.2c0.2-0.2,0.5-0.3,0.9-0.4c0.4-0.1,0.8-0.2,1.3-0.2
			c0.9,0,1.5,0.2,1.9,0.5s0.6,0.9,0.6,1.7V95c0,0.1,0,0.1-0.1,0.1H486.1z M484.3,94.3c0.5,0,0.9-0.1,1.2-0.3
			c0.3-0.2,0.4-0.5,0.4-0.9v-0.7c0-0.1,0-0.1-0.1-0.1h-1.3c-0.6,0-1,0.1-1.2,0.2c-0.2,0.2-0.4,0.4-0.4,0.8c0,0.3,0.1,0.6,0.3,0.7
			C483.6,94.2,483.9,94.3,484.3,94.3z"/>
		<path class="st11" d="M489.2,95.1c-0.1,0-0.1,0-0.1-0.1v-8.7c0-0.1,0-0.1,0.1-0.1h0.8c0.1,0,0.1,0,0.1,0.1v3.2h0
			c0.1-0.3,0.4-0.5,0.7-0.6c0.3-0.2,0.7-0.2,1.1-0.2c0.6,0,1,0.1,1.4,0.4c0.4,0.3,0.6,0.6,0.8,1.1c0.1,0.3,0.1,0.5,0.2,0.8
			c0,0.3,0,0.6,0,1c0,0.4,0,0.7,0,1c0,0.3-0.1,0.5-0.2,0.8c-0.2,0.5-0.4,0.9-0.8,1.1c-0.4,0.3-0.8,0.4-1.4,0.4
			c-0.5,0-0.9-0.1-1.1-0.2c-0.3-0.2-0.5-0.4-0.7-0.6h0V95c0,0.1,0,0.1-0.1,0.1H489.2z M491.7,94.2c0.7,0,1.2-0.3,1.4-1
			c0.1-0.2,0.1-0.4,0.1-0.6c0-0.2,0-0.5,0-0.8c0-0.3,0-0.5,0-0.7c0-0.2-0.1-0.4-0.1-0.6c-0.2-0.6-0.7-0.9-1.4-0.9
			c-0.7,0-1.2,0.3-1.4,0.9c-0.1,0.2-0.1,0.3-0.1,0.5c0,0.2,0,0.5,0,0.8c0,0.3,0,0.6,0,0.8c0,0.2,0.1,0.4,0.1,0.5
			C490.6,93.9,491,94.2,491.7,94.2z"/>
		<path class="st11" d="M496.3,87.4c-0.1,0-0.1,0-0.1-0.1v-1c0-0.1,0-0.1,0.1-0.1h0.9c0.1,0,0.1,0,0.1,0.1v1c0,0.1,0,0.1-0.1,0.1
			H496.3z M496.3,95.1c-0.1,0-0.1,0-0.1-0.1v-6c0-0.1,0-0.1,0.1-0.1h0.8c0.1,0,0.1,0,0.1,0.1v6c0,0.1,0,0.1-0.1,0.1H496.3z"/>
		<path class="st11" d="M499.3,93.9c0-0.1,0-0.1,0.1-0.1h1c0.1,0,0.1,0,0.1,0.1V95c0,0.1,0,0.1-0.1,0.1h-1c-0.1,0-0.1,0-0.1-0.1
			V93.9z"/>
		<path class="st11" d="M506.4,95.1c-0.1,0-0.1,0-0.1-0.1v-0.6h0c-0.1,0.2-0.4,0.4-0.7,0.6c-0.3,0.2-0.7,0.2-1.2,0.2
			c-0.3,0-0.6,0-0.8-0.1c-0.3-0.1-0.5-0.2-0.7-0.4c-0.2-0.2-0.3-0.4-0.4-0.6c-0.1-0.2-0.2-0.5-0.2-0.8c0-0.7,0.2-1.2,0.7-1.5
			c0.4-0.3,1-0.5,1.8-0.5h1.4c0.1,0,0.1,0,0.1-0.1v-0.5c0-0.4-0.1-0.7-0.3-0.9c-0.2-0.2-0.6-0.3-1.2-0.3c-0.4,0-0.7,0-0.9,0.1
			c-0.2,0.1-0.4,0.2-0.6,0.3c-0.1,0.1-0.1,0.1-0.2,0l-0.4-0.6c0-0.1,0-0.1,0-0.2c0.2-0.2,0.5-0.3,0.9-0.4c0.4-0.1,0.8-0.2,1.3-0.2
			c0.9,0,1.5,0.2,1.9,0.5s0.6,0.9,0.6,1.7V95c0,0.1,0,0.1-0.1,0.1H506.4z M504.6,94.3c0.5,0,0.9-0.1,1.2-0.3
			c0.3-0.2,0.4-0.5,0.4-0.9v-0.7c0-0.1,0-0.1-0.1-0.1h-1.3c-0.6,0-1,0.1-1.2,0.2c-0.2,0.2-0.4,0.4-0.4,0.8c0,0.3,0.1,0.6,0.3,0.7
			C503.9,94.2,504.2,94.3,504.6,94.3z"/>
		<path class="st11" d="M511.7,95.3c-0.6,0-1.2-0.1-1.6-0.4s-0.7-0.7-0.9-1.3c-0.1-0.2-0.1-0.4-0.2-0.7c0-0.2-0.1-0.6-0.1-0.9
			c0-0.4,0-0.7,0-0.9c0-0.2,0.1-0.5,0.2-0.7c0.2-0.6,0.5-1,0.9-1.3c0.4-0.3,1-0.4,1.6-0.4c0.6,0,1.1,0.1,1.6,0.4s0.7,0.7,0.9,1.3
			c0,0.1,0.1,0.2,0.1,0.3c0,0.1,0,0.2,0.1,0.4s0,0.3,0,0.5s0,0.4,0,0.6c0,0.1,0,0.1-0.1,0.1h-4c-0.1,0-0.1,0-0.1,0.1
			c0,0.2,0,0.3,0,0.4s0,0.2,0.1,0.3c0.1,0.4,0.3,0.6,0.6,0.8c0.3,0.2,0.6,0.3,1,0.3c0.4,0,0.7-0.1,1-0.2c0.3-0.1,0.5-0.3,0.7-0.5
			c0.1-0.1,0.1-0.1,0.2,0l0.5,0.5c0.1,0.1,0.1,0.1,0,0.2c-0.3,0.3-0.6,0.6-1,0.8C512.8,95.2,512.3,95.3,511.7,95.3z M513.1,91.4
			C513.2,91.4,513.2,91.4,513.1,91.4c0.1-0.4,0-0.6,0-0.8c-0.1-0.3-0.3-0.6-0.5-0.7s-0.6-0.3-0.9-0.3c-0.4,0-0.7,0.1-0.9,0.3
			s-0.4,0.4-0.5,0.7c-0.1,0.2-0.1,0.4-0.1,0.7c0,0.1,0,0.1,0.1,0.1H513.1z"/>
	</g>
</g>
<circle class="st2" cx="376.8" cy="121.4" r="8.3"/>
<ellipse transform="matrix(0.9732 -0.2298 0.2298 0.9732 -18.5415 83.6522)" class="st0" cx="350" cy="121.4" rx="8.3" ry="8.3"/>
<ellipse transform="matrix(0.9732 -0.2298 0.2298 0.9732 -19.2599 77.4822)" class="st10" cx="323.1" cy="121.4" rx="8.3" ry="8.3"/>
<path class="st1" d="M296.2,113.2L296.2,113.2c-4.6,0-8.3,3.7-8.3,8.3c0,4.6,3.7,8.3,8.3,8.3h0c4.6,0,8.3-3.7,8.3-8.3
	C304.5,116.9,300.8,113.2,296.2,113.2z"/>
<g>
	<text transform="matrix(1 0 0 1 292.4035 126.2869)" class="st11 st12 st13">C</text>
</g>
<g>
	<text transform="matrix(1 0 0 1 319.3952 126.2869)" class="st11 st12 st13">P</text>
</g>
<g>
	<text transform="matrix(1 0 0 1 345.1987 126.2869)" class="st11 st12 st13">M</text>
</g>
<g>
	<text transform="matrix(1 0 0 1 373.3632 126.2869)" class="st11 st12 st13">C</text>
</g>
</svg>
