<svg xmlns="http://www.w3.org/2000/svg" viewBox="0 0 10.4 9.1"><defs><style>.cls-1{fill:#231f20;}</style></defs><g id="Layer_2" data-name="Layer 2"><g id="Layer_1-2" data-name="Layer 1"><path class="cls-1" d="M10.3,1.1H8.6A.1.1,0,0,1,8.5,1c0-.1,0-.2.1-.2h1.7V1Z"/><path class="cls-1" d="M7,8.4H.1A.3.3,0,0,1,0,8.2H7.1C7.1,8.3,7.1,8.4,7,8.4Z"/><path class="cls-1" d="M6.1,6.6H5.2c-.1,0-.1-.1-.1-.2a.1.1,0,0,1,.1-.1h.9a.1.1,0,0,1,.1.1C6.2,6.5,6.2,6.6,6.1,6.6Z"/><path class="cls-1" d="M4.7,6.6H3.1l-.2-.2H4.8Z"/><path class="cls-1" d="M6.2,5.7H4.4l.2-.2H6.2v.2Z"/><path class="cls-1" d="M4.1,5.7H2.9l.2-.2h1v.2Z"/><path class="cls-1" d="M6.9,4.9H5.3c-.1,0-.1-.1-.1-.2a.1.1,0,0,1,.1-.1H7Z"/><path class="cls-1" d="M4.8,4.9H3.1l-.2-.2H4.8a.1.1,0,0,1,.1.1C4.9,4.8,4.9,4.9,4.8,4.9Z"/><path class="cls-1" d="M7.4,4H5.8a.1.1,0,0,1-.1-.1c0-.1,0-.2.1-.2H7.4c.1,0,.1.1.1.2A.1.1,0,0,1,7.4,4Z"/><path class="cls-1" d="M5.3,4H2.9a.2.2,0,0,1,.2-.2H5.3c.1,0,.1.1.1.2A.1.1,0,0,1,5.3,4Z"/><path class="cls-1" d="M6.9,3.2H4.4A.3.3,0,0,1,4.3,3H7A.3.3,0,0,1,6.9,3.2Z"/><path class="cls-1" d="M3.9,3.2H3.1A.2.2,0,0,1,2.9,3h1A.1.1,0,0,1,4,3C4,3.1,4,3.2,3.9,3.2Z"/><path class="cls-1" d="M5,2.3H2.9A.2.2,0,0,1,3.1,2H5a.2.2,0,0,1,.2.2Z"/><path class="cls-1" d="M8.6,6H8.5v2a.7.7,0,1,1-1.4,0v-1H.1v1a1,1,0,0,0,1,1H7.8a1.1,1.1,0,0,0,1-1v-2ZM1,8.8a.7.7,0,0,1-.7-.7V7.4H6.8v.7a1.5,1.5,0,0,0,.3.7Z"/><path class="cls-1" d="M9.4,0H2.6a1,1,0,0,0-1,1V6.8h.3V1A.7.7,0,0,1,2.6.3H8.8a.8.8,0,0,0-.3.7v.8h0V3a.1.1,0,0,0,.1.1h.2V1.8h0V1A.7.7,0,0,1,9.4.3a.7.7,0,0,1,.7.7v.6H9.4a.3.3,0,0,0-.1.2h1.1V1A.9.9,0,0,0,9.4,0Z"/><path class="cls-1" d="M10,3a.6.6,0,0,0-.9,0l-.3.3h0L6.9,5.1c0,.1-.1.2-.1.3l-.3.9v.3h.3l1-.3h0L8,6.2,9.8,4.4h0l.4-.4a.7.7,0,0,0,0-.9ZM7.9,5.9l-.7-.7L8.9,3.6l.7.7Zm-1.2.5v0Zm.5-.1-.3-.4V5.4h.1l.6.7h0ZM10,3.9l-.3.2L9,3.4l.3-.3h.5l.2.2A.4.4,0,0,1,10,3.9Z"/></g></g></svg>