<svg xmlns="http://www.w3.org/2000/svg" viewBox="0 0 68.2 69.6"><defs><style>.cls-1{fill:#231f20;}</style></defs><g id="Layer_2" data-name="Layer 2"><g id="Layer_1-2" data-name="Layer 1"><path class="cls-1" d="M48.4,7.2H41.2V0H0V54.7H7.2v7.2h7.4V60.1H9V9H46.6v5.8H15.1V69.6H56.3V14.8H48.4Zm-9,0H7.2V52.9H1.8V1.8H39.4Zm15.1,9.5V67.8H16.9V16.7Z"/><path class="cls-1" d="M67.6,39.6H60.7a.7.7,0,0,0-.7.6V69c0,.4.3.6.7.6h6.9a.6.6,0,0,0,.6-.6V40.2A.6.6,0,0,0,67.6,39.6ZM63.4,68.3H61.3V40.9h2.1Zm3.5,0H64.8V40.9h2.1Z"/><path class="cls-1" d="M60.7,37.7h6.8a.7.7,0,0,0,.6-.3.6.6,0,0,0,0-.6l-3.4-8.1a.7.7,0,0,0-1.2,0l-3.4,8.1a.6.6,0,0,0,.1.6A.5.5,0,0,0,60.7,37.7Zm2.7-5.4h1.4l1.7,4.1H61.7Z"/><rect class="cls-1" x="22.2" y="26.5" width="28.6" height="1.81"/><rect class="cls-1" x="22.2" y="33.7" width="28.6" height="1.81"/><rect class="cls-1" x="22.2" y="40.9" width="28.6" height="1.81"/><rect class="cls-1" x="22.2" y="48.1" width="28.6" height="1.81"/><rect class="cls-1" x="22.2" y="55.3" width="28.6" height="1.81"/></g></g></svg>