<svg xmlns="http://www.w3.org/2000/svg" viewBox="0 0 9.9 9.6"><defs><style>.cls-1{fill:#231f20;}</style></defs><g id="Layer_2" data-name="Layer 2"><g id="Layer_1-2" data-name="Layer 1"><path class="cls-1" d="M5,8.8c-.1,0-.2,0-.2-.1H5A3.9,3.9,0,0,0,8.5,6.2a.1.1,0,0,1,.1-.1c.1,0,.1.1.1.2A4,4,0,0,1,5,8.8Z"/><path class="cls-1" d="M1.5,8.3H1.4v-1a.1.1,0,0,1,.1-.1H4.8V6.7c0-.1.1-.1.2-.1a.1.1,0,0,1,.1.1v.5H1.6v.9A.1.1,0,0,1,1.5,8.3Z"/><path class="cls-1" d="M1.3,3.5h0a.1.1,0,0,1-.1-.1A4,4,0,0,1,5,.8H5A3.9,3.9,0,0,0,1.4,3.5Z"/><path class="cls-1" d="M5,3c-.1,0-.2,0-.2-.1V2.5A.2.2,0,0,1,5,2.3H8.3V1.5c0-.1,0-.2.1-.2s.1.1.1.2v1a.1.1,0,0,1-.1.1H5.1v.3A.1.1,0,0,1,5,3Z"/><path class="cls-1" d="M2.9,3.3H.1a.1.1,0,0,0-.1.1V6.2H3V3.4C3,3.3,3,3.3,2.9,3.3ZM2.8,6.1H.3V3.5H2.8Z"/><path class="cls-1" d="M6.3,3.3H3.6c-.1,0-.2,0-.2.1V6.2H6.5V3.4C6.5,3.3,6.4,3.3,6.3,3.3ZM6.2,6.1H3.7V3.5H6.2Z"/><path class="cls-1" d="M9.8,3.3H7c-.1,0-.1,0-.1.1V6.2h3V3.4A.1.1,0,0,0,9.8,3.3Zm-.2.2v.6H9.1L8.3,5.2l-.2-.3c0-.1-.1-.1-.2-.1h0c-.1,0-.2,0-.2.1l-.6.8V3.5ZM7.2,6.1,7.9,5h0l.3.5h.2l.9-1.2h0l.3.5h0V6.1Z"/><path class="cls-1" d="M1.1,5.6h.2L2.1,5c.1,0,.1-.1.1-.2V4.6l-.8-.5H1.1c-.1,0-.1.1-.1.2v1A.4.4,0,0,0,1.1,5.6Zm.1-1.3.8.5-.8.5Z"/><path class="cls-1" d="M7.9,4.6a.4.4,0,0,0,.4-.4.5.5,0,0,0-.4-.5.5.5,0,0,0-.5.5A.5.5,0,0,0,7.9,4.6Zm0-.6a.2.2,0,0,1,.2.2H7.7A.2.2,0,0,1,7.9,4Z"/><path class="cls-1" d="M4.3,4.4h.9V4.2H4.1Z"/><path class="cls-1" d="M4.3,4.9H5.6c.1,0,.2,0,.2-.1H4.1C4.1,4.9,4.2,4.9,4.3,4.9Z"/><path class="cls-1" d="M4.3,5.5H5.8c0-.1-.1-.1-.2-.1H4.3c-.1,0-.2,0-.2.1Z"/><path class="cls-1" d="M5,1.8h.1L5.9,1V.8L5.1,0H4.9V1.7C4.9,1.8,4.9,1.8,5,1.8ZM5.1.4l.5.5-.5.5Z"/><path class="cls-1" d="M5,7.8H4.9l-.8.8c-.1.1-.1.2,0,.2l.8.8h.2V7.9ZM4.8,9.2l-.5-.5.5-.5Z"/><path class="cls-1" d="M1.5,8a.7.7,0,0,0,0,1.4A.7.7,0,0,0,1.5,8Zm0,1.1a.4.4,0,1,1,0-.8.4.4,0,1,1,0,.8Z"/><path class="cls-1" d="M8.4,1.6A.8.8,0,0,0,9.1.9.8.8,0,0,0,8.4.2a.7.7,0,0,0-.7.7A.7.7,0,0,0,8.4,1.6ZM8.4.5a.4.4,0,0,1,.4.4A.4.4,0,0,1,8,.9.4.4,0,0,1,8.4.5Z"/></g></g></svg>