<svg xmlns="http://www.w3.org/2000/svg" viewBox="0 0 9.2 9.3"><defs><style>.cls-1{fill:#231f20;}</style></defs><g id="Layer_2" data-name="Layer 2"><g id="Layer_1-2" data-name="Layer 1"><path class="cls-1" d="M.9,6.1H.8c-.1,0,0-.1,0-.1l.7-.4V5.2H.6a.1.1,0,0,1-.1-.1H1.6v.5h0l-.8.5Z"/><path class="cls-1" d="M1.8,7.4H1.7c-.1-.1-.1-.1,0-.2l.4-.6-.2-.3-.7.4a.1.1,0,0,1-.1-.1h0l.8-.4h.2l.3.4v.2l-.5.7Z"/><path class="cls-1" d="M8.3,6.1h0l-.8-.5h0V5H8.7a.1.1,0,0,1-.1.1H7.8v.3l.7.4s.1.1,0,.1Z"/><path class="cls-1" d="M7.4,7.4H7.3l-.5-.7V6.5l.3-.4h.2l.8.4h0c0,.1-.1.1-.2.1l-.6-.4L7,6.6l.5.6c.1.1.1.1,0,.2Z"/><path class="cls-1" d="M6.6,5.1h-4A1.2,1.2,0,0,1,1.4,3.9,1.2,1.2,0,0,1,2.6,2.6h4A1.2,1.2,0,0,1,7.8,3.9,1.2,1.2,0,0,1,6.6,5.1Zm-4-2.2a.9.9,0,0,0-1,1,1,1,0,0,0,1,1h4a1.1,1.1,0,0,0,1-1,1,1,0,0,0-1-1Z"/><path class="cls-1" d="M3.8,2.1c-.1,0-.1,0-.1-.1V1.2h.2V2A.1.1,0,0,1,3.8,2.1Z"/><path class="cls-1" d="M4.6,2.1c-.1,0-.1,0-.1-.1V1.2h.2V2C4.7,2.1,4.7,2.1,4.6,2.1Z"/><path class="cls-1" d="M5.4,2.1c-.1,0-.1,0-.1-.1V1.2h.2V2C5.5,2.1,5.5,2.1,5.4,2.1Z"/><path class="cls-1" d="M2.7,3.2a.7.7,0,0,0-.7.7.8.8,0,0,0,.7.7.8.8,0,0,0,.7-.7A.7.7,0,0,0,2.7,3.2Zm0,1.1a.4.4,0,0,1-.4-.4.5.5,0,0,1,.4-.5.5.5,0,0,1,.5.5A.5.5,0,0,1,2.7,4.3Z"/><path class="cls-1" d="M6.5,3.2a.7.7,0,0,0-.7.7.8.8,0,0,0,.7.7c.3,0,.6-.4.6-.7A.7.7,0,0,0,6.5,3.2Zm0,1.1A.5.5,0,0,1,6,3.9a.5.5,0,0,1,.5-.5.5.5,0,0,1,.4.5A.4.4,0,0,1,6.5,4.3Z"/><path class="cls-1" d="M5.5,5.7H3.7c-.1,0-.1.1-.1.2v.2a1,1,0,0,0,2,0V5.9C5.6,5.8,5.6,5.7,5.5,5.7Zm-.1.4a.9.9,0,0,1-.8.8.9.9,0,0,1-.8-.8H5.4Z"/><path class="cls-1" d="M1.4.7A.8.8,0,0,0,.7,0,.7.7,0,0,0,0,.7a.8.8,0,0,0,.7.7A.8.8,0,0,0,1.4.7ZM.2.7A.5.5,0,0,1,.7.2a.5.5,0,0,1,.4.5.4.4,0,0,1-.4.4A.5.5,0,0,1,.2.7Z"/><path class="cls-1" d="M7.9,1.4h0c0-.1-.1-.1-.2,0l-.2.2A3.9,3.9,0,0,0,4.6.2a4.2,4.2,0,0,0-3,1.3V1.3c-.1-.1-.2-.1-.2,0s-.1.1,0,.1l.2.2A4.1,4.1,0,0,0,.4,4.4,4.5,4.5,0,0,0,1.9,7.7L1.5,9.1h.2l1.8-.8H4.6A4.2,4.2,0,0,0,8.8,4.4,4.1,4.1,0,0,0,7.7,1.6Zm-3.3,7-1-.2H3.5l-1.7.7.4-1.3h0A3.8,3.8,0,0,1,.6,4.4,3.9,3.9,0,0,1,4.6.5,3.8,3.8,0,0,1,8.5,4.4,3.9,3.9,0,0,1,4.6,8.4Z"/><path class="cls-1" d="M8.5,0a.7.7,0,0,0-.7.7.8.8,0,0,0,.7.7A.8.8,0,0,0,9.2.7.7.7,0,0,0,8.5,0Zm0,1.1A.4.4,0,0,1,8.1.7.5.5,0,0,1,8.5.2c.3,0,.4.2.4.5A.4.4,0,0,1,8.5,1.1Z"/></g></g></svg>