<svg xmlns="http://www.w3.org/2000/svg" viewBox="0 0 190.4 143.9"><defs><style>.cls-1,.cls-2,.cls-3{fill-rule:evenodd;}.cls-2{fill:#3b86f7;}.cls-3,.cls-4{fill:#fff;}</style></defs><g id="Layer_2" data-name="Layer 2"><g id="Layer_1-2" data-name="Layer 1"><path class="cls-1" d="M95.2,113.5Z"/><path class="cls-1" d="M95.2,113.5Z"/><polygon class="cls-2" points="190.4 0 0 0 0 143.9 190.4 143.9 190.4 1.2 190.4 0"/><path class="cls-3" d="M118.7,87.1a7.5,7.5,0,0,0,1.2-.7c.2,0,.4-.1.6,0,1.7-.2.5,2.7-1.5,5.2-.7.9-.3.9.5.3s3.4-5.9,3-7.5a1.1,1.1,0,0,0-.3-.8c-.8-1.1-2.5-.1-3.4,1.1v2.4ZM91.9,54.6c-6.1,5.6-10.3,9.6-26.2,14.2-1.9.8-1.9,1.1-1.1,1.3,10.8,1.3,22.2-3.3,27.5-12.6l.3-.6c1.1-2.1,2.1-4.6-.5-2.3Zm9.8-5.7c-1.6,1.3-2.1,1.6-.3,1s5-2.1,6.1-6.4a5.9,5.9,0,0,0,.5-2.2c0-1.2-.5-1.8-1.7-1.2s-5.4,2.6-6.9,2.6H99c-.3,0-.7.8-.9,1.5v.3c-.2,1.6-.4,2.1.7,2a16.2,16.2,0,0,0,6.3-2.4c.3-.2.8-.9.6.2s-2.6,3.4-4,4.6ZM108.5,72h0c0,.5.2,1.3-.3,1.9s-.6.8-1,.2-.1-.2-.1-.3-.5-.9-.6-.6-.5,2.7.8,3.3,1.3-.3,1.6-1.1h.4c2.3-.5,2.4-3.5,1.7-5.3-.2-.3-.3-.6-.5-.5l-.2.2a2.2,2.2,0,0,0,0,.8c.1,1,.3,1.9-.9,2.5h0a2.7,2.7,0,0,0-.5-1.5c-.2-.2-.4-.2-.4.4ZM81.7,103.5h.6c.6.1,1.4-.5,1.8-.9a17.3,17.3,0,0,0,1.8-2.4,7.5,7.5,0,0,0,1.5,1.3,1.4,1.4,0,0,0,1.1.1c2-.6,3.1-4,3.2-5.7s0-.9-.2-.9h-.1c-.4.1-.8,2.1-1.4,2.8a1.9,1.9,0,0,1-1.6.8c-.6-.2-1.2-1.3-1.7-1.4s-.5.1-.7.4-1.6,3.4-3.7,2.8-1-.5-1.7-.1a7.4,7.4,0,0,0-2.1,1.8s-4.8,6-16,8c-.1.1-.2.2-.1.4h.4c10.8-1,12-1.8,15.6-6l.6-.7c1.6-1.4,1.6-.6,2.7-.4Zm19.4-22.9a49.1,49.1,0,0,0,2.5-8.2c.2-.7.3-1.4.5-1.9l.3-.8c1.1-3.6,3.7-4.5,6.9-3.3.7.2,1.2.9,1.6.8s1.2-2.4,1.5-4.4-.1-3.2-2.7-4.1-4.2-1.1-5.1-2.3l-.4-.5c-.5-.8-.9-.7-1.4.6a17.1,17.1,0,0,0-.9,4.1c0,.7.1,1.2.1,1.8a72.5,72.5,0,0,1-2.2,7.8c-1,3.2-3.7,8.9-7.5,10h-.5l.3-1.7a27.9,27.9,0,0,0,0-2.9c0-1.2-.6-1.4-.9-.2-1,3.4-1.2,4.5-4,6l-.2.2a14.9,14.9,0,0,0,0-3.7c-.1-.4-.5-.4-.8-.2a20.1,20.1,0,0,0-1.4,3.2,7.6,7.6,0,0,1-2.9,3c-2.8,1.3-3.5-1.9-2.9-3.7a4.4,4.4,0,0,0,.2-1c.4-2.6-4,1.4-3.9,1.3C76,82,74.2,84.7,72.8,86a8.4,8.4,0,0,1-2.3,1.2c-2.9.9-6.8.3-8.1-3.1-.7-1.8-1-4.2-2.6-4.2-4-.1-7,7-7.5,10.1s-.9,7-1.3,9.9c-.5,9.7-7.9,3.5-10.1-1.8-3.1-7.5-.8-15.4,5-21.3,2.4-2.4,6.1-4.9,9-7.5H55l1.2-1.3c2.1-2.3,2-2.1-.2-4.1l-2.6-2.4-.7-.4-.6.2-1.4,1.4-2.4,2.3-1.4-1.3-2.6-2.4-.7-.4c-.3.1-.5.1-.6.3l-4.1,3.8v.4a3.9,3.9,0,0,0,.2.6l4.5,4.3h.2a1,1,0,0,0,.9-.1,17.9,17.9,0,0,0,2.5-2.4l1.2-1.4,3.8,3.5c-1.7,1.2-3.3,2.3-4.8,3.6a24.5,24.5,0,0,0-9.2,20.2,18.4,18.4,0,0,0,4.5,11.8c1.8,2.3,11.5,9.9,11.6,1,.1-2.9-.1-7.9.1-10.6a16.4,16.4,0,0,1,.5-2.7,13.7,13.7,0,0,1,2.3-4.5c.2-.3,1.9-1.9,2.6-1.3l.4.7a.4.4,0,0,0,.1.3c1.6,4.4,4.6,7.6,9.7,5.8a6.8,6.8,0,0,0,2.5-1.4,90,90,0,0,0,5.7-7.4,11.1,11.1,0,0,0,.2,2.1,4.9,4.9,0,0,0,1.3,2.8c3.2,3.4,6.1.1,7-1.4l.4-.7c.1.7.1,1,.7,1A4.5,4.5,0,0,0,91.2,87a.7.7,0,0,0,.3-.3v.7c.2.8.9.7,1.6.6h.3c2.9-.6,4.9-2.5,6.4-5.1.7,5.4,1.9,12.6,4.7,18.3a22,22,0,0,1-9.5,5.8c-3.4,1.2-8,2.3-10.1,2.9l-.5.2c-.2.5.2.5.9.5h4c9.3-.3,14.6-1.6,17.8-5.2a13,13,0,0,0,10.3,5.3c11.6.4,15.4-16,16-24.6.3-4.5-.8-10.6-2.2-16.8s-3.6-13.3-3.8-19.2a21.5,21.5,0,0,1,.2-5.7c.7-2.8,1.5-5.6,3.1-7.3,2.8,1.2,5.5,4.1,7.1,7.8,5.1,11.7,2.6,32.2,2.9,40l4.3-4.4c-.1-11.5,1.3-29.5-6.6-39.3a16.4,16.4,0,0,0-6.7-5,6.1,6.1,0,0,1,4.6-.8c3.5.5,6.6,4,8.6,8.6,4,9.2,2.8,24,2.9,33.5l4.4-4.4c-.2-11,0-24.7-6.6-32.8-2.9-3.6-6.1-5.6-9.6-5.7a10.4,10.4,0,0,0-5.5,1.2l-2.3-.3h-.6c-9.3,0-11.5,10.9-11.2,18.8.1,4.3,2.6,11.5,3.4,15.8a4,4,0,0,1-.2,2.9l-.9,1c-1.5,2-5.6,3.4-6.9,5.2s-2,4.4-2.4,7.2c-.1.9-.1,2.5-.2,4a14.8,14.8,0,0,1-2.4,7.6c-3.5-5-5.2-12.1-5.8-17.3Zm27.2-8.1c1.7,5,3.5,10.4,3.3,14.3-.3,7.1-6.3,17.8-14.6,17.3a12.5,12.5,0,0,1-7.5-3.2,20.5,20.5,0,0,0,1.3-6.8c0-.5.1-.9.1-1.4.3-3.8,1-6.3,3.9-8.9s6.1-4.4,6.9-8.2c.2-1.4.5-2.6.6-3.8.8-5.8-2.4-15.7-2.6-21.6s1.5-14.2,8.1-13.9h.9l.7.2c-3.3,2.7-4.8,7.6-5.4,12.6a25.5,25.5,0,0,0-.2,3.9c.3,6.7,2.4,13,4.5,19.5Z"/><path class="cls-4" d="M46.4,131.5H40.3l-1.7,4.7H36.5l5.6-15.7h2.6l5.5,15.7H48Zm-.6-1.7-2.4-7.1-2.6,7.1Z"/><path class="cls-4" d="M54.3,120.5v14h7.8v1.7H52.3V120.5Z"/><path class="cls-4" d="M66.6,129.5v6.7h-2V120.5h7.2a5,5,0,0,1,3.7,1.2,3.7,3.7,0,0,1,1.1,3,3.8,3.8,0,0,1-.6,2.2,5.2,5.2,0,0,1-1.9,1.6,3.3,3.3,0,0,1,1.6,1.1,7.6,7.6,0,0,1,.6,3,9.5,9.5,0,0,0,.2,2.2,1.3,1.3,0,0,0,.7.9v.5H74.8a4.6,4.6,0,0,1-.5-2.1v-2.5a1.2,1.2,0,0,0-.2-.7,2.4,2.4,0,0,0-.3-.7,2.5,2.5,0,0,0-2.1-.7Zm0-1.8h4.8c2.1,0,3.1-.9,3.1-2.7s-1-2.7-3.1-2.7H66.6Z"/><path class="cls-4" d="M88.4,131.5H82.3l-1.6,4.7H78.5l5.6-15.7h2.6l5.6,15.7H90Zm-.6-1.7-2.4-7.1-2.6,7.1Z"/><path class="cls-4" d="M102.7,136.2h-2.1L96.1,123v13.2H94.2V120.5H97l4.7,13.7,4.5-13.7H109v15.7h-1.9V123Z"/><path class="cls-4" d="M123.4,125h-1.9c0-2-1.3-3.1-3.9-3.1a3.9,3.9,0,0,0-2.5.8,2,2,0,0,0-1,1.8,1.7,1.7,0,0,0,.6,1.4,3.7,3.7,0,0,0,2,.9l3.7,1c2.4.6,3.6,1.9,3.6,4a4.2,4.2,0,0,1-1.8,3.5,7,7,0,0,1-4.4,1.2c-2.4,0-4.2-.7-5.3-2.2a5.3,5.3,0,0,1-.9-3.2h1.9a3.2,3.2,0,0,0,1.2,2.7,5.4,5.4,0,0,0,3.3.9,5.3,5.3,0,0,0,2.8-.6,2.4,2.4,0,0,0,1.2-2.2c0-1.1-1-2-2.9-2.5l-3.9-1c-2.1-.5-3.1-1.7-3.1-3.6a3.9,3.9,0,0,1,1.7-3.5,6.7,6.7,0,0,1,3.9-1.1c2.3,0,3.9.7,4.9,2a4.2,4.2,0,0,1,.8,2.6Z"/><path class="cls-4" d="M135.2,131.5h-6l-1.7,4.7h-2.1l5.6-15.7h2.6l5.5,15.7h-2.2Zm-.5-1.7-2.5-7.1-2.5,7.1Z"/><path class="cls-4" d="M151.3,129.1h-8.1v7.1h-2V120.5h2v6.8h8.1v-6.8h2v15.7h-2Z"/></g></g></svg>