<svg xmlns="http://www.w3.org/2000/svg" viewBox="0 0 9.3 9.8"><defs><style>.cls-1{fill:#231f20;}</style></defs><g id="Layer_2" data-name="Layer 2"><g id="Layer_1-2" data-name="Layer 1"><path class="cls-1" d="M9.2,5.8H6c-.1,0-.1-.1-.1-.2H9.3C9.3,5.7,9.3,5.8,9.2,5.8Z"/><path class="cls-1" d="M4.8,5.6a1.6,1.6,0,0,0,.5-1.1A1.6,1.6,0,0,0,3.7,2.9H3.6a.3.3,0,0,0,.1.2A1.3,1.3,0,0,1,5.1,4.5a1.4,1.4,0,0,1-.8,1.2h0a.1.1,0,0,0,.1.1h.4A1.4,1.4,0,0,1,6.2,7.3V9.5H1.3V7.3A1.4,1.4,0,0,1,2.7,5.9h.4a1.5,1.5,0,0,1-.7-1.2A.9.9,0,0,1,2.5,4c0-.1,0-.1-.1-.2H2.3a1.3,1.3,0,0,0-.1.6,1.6,1.6,0,0,0,.5,1.1A1.7,1.7,0,0,0,1.1,7.3V9.7a.1.1,0,0,0,.1.1H6.3a.1.1,0,0,0,.1-.1V7.3A1.7,1.7,0,0,0,4.8,5.6Z"/><path class="cls-1" d="M7.7,2.7a1.6,1.6,0,0,0,.5-1.1A1.6,1.6,0,0,0,6.6,0,1.6,1.6,0,0,0,5.1,1.6a1.6,1.6,0,0,0,.5,1.1H5V3H6.1c0-.1,0-.1-.1-.2a1.2,1.2,0,0,1-.7-1.1A1.3,1.3,0,0,1,6.6.2,1.4,1.4,0,0,1,8,1.6a1.2,1.2,0,0,1-.7,1.1c-.1.1-.1.1-.1.2h.5A1.4,1.4,0,0,1,9.1,4.4V6.6H7a.1.1,0,0,0-.1.1c0,.1,0,.2.1.2H9.2c.1,0,.1-.1.1-.2V4.4A1.7,1.7,0,0,0,7.7,2.7Z"/><path class="cls-1" d="M2.3,2.6a.1.1,0,0,0-.1.1c0,.1,0,.2.1.2h.6c.1,0,.1-.1.1-.2a.1.1,0,0,0-.1-.1Z"/><path class="cls-1" d="M1.7,2.9a.2.2,0,0,0,.2-.2H1.1a.1.1,0,0,0-.1.1c0,.1,0,.2.1.2Z"/><path class="cls-1" d="M2.7,2.1h.6a.3.3,0,0,0-.1-.2H2.9A.2.2,0,0,0,2.7,2.1Z"/><path class="cls-1" d="M1.1,2.2H2.5a.2.2,0,0,0-.2-.2H1.1C1,1.9,1,2,1,2.1A.1.1,0,0,0,1.1,2.2Z"/><path class="cls-1" d="M1.1,1.5H1A.1.1,0,0,0,1.1,1.5Z"/><path class="cls-1" d="M4.4,8.9H4.3l-.6-.4-.5.4H2.9a.4.4,0,0,1-.1-.3L3,8l-.5-.4c-.1,0-.1-.1-.1-.2s.1-.2.3-.2h.6l.2-.6.2-.2.3.2H4l.2.6h.6a.2.2,0,0,1,.2.2.1.1,0,0,1,0,.2L4.4,8l.2.6c.1.1,0,.2-.1.3Zm-.7-.6h.2l.5.4-.2-.6a.4.4,0,0,1,.1-.3l.5-.4H3.9l-.2-.6-.2.6c0,.1-.1.1-.2.1H2.7l.5.4a.4.4,0,0,1,.1.3l-.2.6.5-.4Z"/><path class="cls-1" d="M3.4,4.4h0L2.5,4H2A2,2,0,0,1,0,2,2,2,0,0,1,2,0,2,2,0,0,1,4.1,2a2.4,2.4,0,0,1-.7,1.6l.2.7H3.4Zm-.8-.6h0l.7.3-.2-.5c0-.1,0-.1.1-.1A2.1,2.1,0,0,0,3.9,2,1.9,1.9,0,0,0,2,.2,1.8,1.8,0,0,0,.2,2,1.9,1.9,0,0,0,2,3.9h.6Z"/></g></g></svg>