<svg xmlns="http://www.w3.org/2000/svg" viewBox="0 0 10.4 9.9"><defs><style>.cls-1{fill:#231f20;}</style></defs><g id="Layer_2" data-name="Layer 2"><g id="Layer_1-2" data-name="Layer 1"><path class="cls-1" d="M9.6,2.3H9.4a4.4,4.4,0,0,1,.7,2.4H8a7.1,7.1,0,0,0-.3-2.1l1.1-.4c.1,0,.1-.1.1-.2s-.1-.1-.2,0l-1.1.4-.3-1A4,4,0,0,0,6.3.3,4.8,4.8,0,0,1,8.8,1.7H9V1.5A4.9,4.9,0,0,0,5.4,0,5.1,5.1,0,0,0,2.1,1.3,4.7,4.7,0,0,0,.5,4.4H.6c.1,0,.1-.1.1-.2a5.2,5.2,0,0,1,1-2.3l1.4.6a13.6,13.6,0,0,0-.2,2.1H1.1a.1.1,0,0,0-.1.1c0,.1,0,.2.1.2H2.9A9.7,9.7,0,0,0,3,6.8h.2V6.7a8.8,8.8,0,0,1-.2-1.6h.3c.1,0,.1-.1.1-.2a.1.1,0,0,0-.1-.1H3.1a6.4,6.4,0,0,1,.3-2L5.3,3v.6a.3.3,0,0,0,.1.2c.1,0,.1-.1.1-.2V3l2-.2.3,2H7.3l.2.2h.3l-.3,2-2-.2V6H5.3v.9H3.7c0,.1-.1.1,0,.2h.1l1.5-.2V9.6c-.7,0-1.3-.7-1.8-1.9s0-.1-.1-.1v.2A4.1,4.1,0,0,0,4.5,9.6,4.7,4.7,0,0,1,1.8,8a3.1,3.1,0,0,1,1-.5h.1a.1.1,0,0,0-.1-.1,2.8,2.8,0,0,0-1.1.5,5.1,5.1,0,0,1-1-2.4.1.1,0,0,0-.1-.1v.2A4.7,4.7,0,0,0,2.1,8.6,5.1,5.1,0,0,0,5.4,9.9a5,5,0,0,0,5-5A5,5,0,0,0,9.6,2.3ZM1.8,1.9A4.7,4.7,0,0,1,4.5.3a6.2,6.2,0,0,0-.9,1.2,3,3,0,0,0-.4,1Zm1.6.6C3.8,1.2,4.5.3,5.3.2V2.7A5.8,5.8,0,0,1,3.4,2.5Zm2.1.2V.2c.8.1,1.5,1,1.9,2.3A5.8,5.8,0,0,1,5.5,2.7ZM8,5.1h2.1a4.4,4.4,0,0,1-.9,2.7,3.4,3.4,0,0,0-1.5-.6A7.6,7.6,0,0,0,8,5.1ZM7.4,7.4C7,8.7,6.3,9.6,5.5,9.6V7.1A5.8,5.8,0,0,1,7.4,7.4ZM6.3,9.6a4,4,0,0,0,1-1.2l.3-1A3,3,0,0,1,9,8,5.3,5.3,0,0,1,6.3,9.6Z"/><path class="cls-1" d="M6.6,5.7h0L5.1,5.2h-1l.2-.2h.9l1.4.5h.1A.1.1,0,0,1,6.6,5.7Z"/><path class="cls-1" d="M6.7,4.4V3.8H6.6c0-.1-.1-.1-.2-.1l-1.3.5H4.3l-.2.2v.2H4a.2.2,0,0,0-.2.2V5a.2.2,0,0,0,.2.2h.1v.2l.2.2h.2v.7h.5a.1.1,0,0,1,.1-.1h0V5.6h0l1.3.5h.2V5.3a.4.4,0,0,0,.4-.4h0A.4.4,0,0,0,6.7,4.4ZM4,5V4.7h.1V5Zm.9,1.1H4.8V5.6h.2Zm1.6-.3L5.2,5.4H4.4V4.3h.8l1.3-.4Zm.4-.9-.2.2V4.6l.2.2Z"/><path class="cls-1" d="M9.2,2.6A.6.6,0,0,1,8.6,2a.6.6,0,0,1,.6-.6.5.5,0,0,1,.6.6A.6.6,0,0,1,9.2,2.6Zm0-1c-.2,0-.3.2-.3.4a.3.3,0,0,0,.3.3c.2,0,.4-.1.4-.3A.4.4,0,0,0,9.2,1.6Z"/><path class="cls-1" d="M3.3,7.9a.6.6,0,0,1-.6-.6.5.5,0,0,1,.6-.6.6.6,0,0,1,.6.6A.6.6,0,0,1,3.3,7.9Zm0-1a.4.4,0,0,0-.4.4c0,.2.2.3.4.3a.3.3,0,0,0,.3-.3C3.6,7.1,3.5,6.9,3.3,6.9Z"/><path class="cls-1" d="M.6,5.5A.6.6,0,0,1,0,4.9a.6.6,0,0,1,.6-.6.6.6,0,0,1,.6.6A.6.6,0,0,1,.6,5.5Zm0-.9c-.2,0-.4.1-.4.3a.4.4,0,0,0,.4.4A.4.4,0,0,0,1,4.9C1,4.7.8,4.6.6,4.6Z"/></g></g></svg>