<svg xmlns="http://www.w3.org/2000/svg" viewBox="0 0 9.4 10"><defs><style>.cls-1{fill:#231f20;}</style></defs><g id="Layer_2" data-name="Layer 2"><g id="Layer_1-2" data-name="Layer 1"><path class="cls-1" d="M5.7,4.5H5.6V4.3A.4.4,0,0,0,5.7,4c0-.1,0-.1-.1-.2H5c-.1-.1-.1-.1,0-.2a.5.5,0,0,1,.8,0A.8.8,0,0,1,6,4c0,.2-.1.3-.2.5Z"/><path class="cls-1" d="M6.4,5.1H6.3c-.1-.1-.1-.1,0-.2h.1l-.2-.3c-.1-.1-.1-.1,0-.2h.4V3.9H6.2c-.1,0-.1-.1,0-.1l.2-.3-.2-.2-.4.2H5.6V2.8H5.3v.4H5l-.4-.2H4.3V3h.5L5,3V2.7c0-.1.1-.2.3-.2h.2c.2,0,.3.1.3.2V3L6,2.8c.1,0,.3,0,.3.1l.2.2a.4.4,0,0,1,.1.3v.2h.2c.1.1.2.2.2.3v.3l-.2.2H6.5v.2a.4.4,0,0,1-.1.3Z"/><path class="cls-1" d="M1.6,8.9H1.5V8.7L3.1,7.2h0L6.4,5.6c.1,0,.2,0,.2.1H6.5L3.2,7.4,1.7,8.9Z"/><path class="cls-1" d="M4.9,9.1l-1.3-1,.2-.2,3-1.4A.2.2,0,0,0,7,6.3.4.4,0,0,0,6.9,6L3.4,2.5c0-.1-.1-.1-.3-.1a.2.2,0,0,0-.2.2l-1.4,3L.1,7a.5.5,0,0,0,0,.5l.4.3-.4.4a.6.6,0,0,0,0,.6l.6.5h.5l.4-.4.3.4h.5L2.7,9l1.5.9h.2L5,9.3H4.9ZM1,9.1H.9L.3,8.6c-.1-.1-.1-.1,0-.2L.7,8l.7.8Zm1.2,0H2.1L.3,7.3h0L1.7,5.8h0L3.1,2.7h.2L6.7,6.2h0l-3,1.4H3.6Zm2.1.6L2.9,8.8l.5-.5,1.3,1Z"/><path class="cls-1" d="M5.5,0a4,4,0,0,0-4,4h.3A3.6,3.6,0,0,1,5.5.3,3.7,3.7,0,0,1,9.2,4,3.8,3.8,0,0,1,5.5,7.7H5.3c0,.1.1.1.2.1A3.9,3.9,0,0,0,9.4,4,3.9,3.9,0,0,0,5.5,0Z"/><path class="cls-1" d="M5.5,1.3A2.7,2.7,0,0,1,8.2,4h.2A2.9,2.9,0,0,0,5.5,1H5.3Z"/><path class="cls-1" d="M5.5,2.1A1.9,1.9,0,0,1,7.3,4h.3A2.1,2.1,0,0,0,5.5,1.9c-.1,0-.2,0-.2.1S5.4,2.1,5.5,2.1Z"/></g></g></svg>