<svg xmlns="http://www.w3.org/2000/svg" viewBox="0 0 10.1 9.8"><defs><style>.cls-1{fill:#231f20;}</style></defs><g id="Layer_2" data-name="Layer 2"><g id="Layer_1-2" data-name="Layer 1"><path class="cls-1" d="M6.1,4.3H4a.2.2,0,0,1-.2-.2H6.2C6.2,4.2,6.2,4.3,6.1,4.3Z"/><path class="cls-1" d="M6.9,4.8H3c0-.1,0-.2.1-.2H6.9a.2.2,0,0,1,.2.2Z"/><path class="cls-1" d="M9.5,1.6H7c0,.1,0,.1.1.1H9.5c.2,0,.3.2.3.4V7.3a.3.3,0,0,1-.3.3H.6c-.2,0-.4-.1-.4-.3V2.2a.4.4,0,0,1,.4-.4H3c.1,0,.1,0,.1-.1H.6a.6.6,0,0,0-.6.6V7.3a.6.6,0,0,0,.6.6H9.5a.6.6,0,0,0,.6-.6V2.2A.6.6,0,0,0,9.5,1.6Z"/><path class="cls-1" d="M7,9H5.8V8.2H5.6V9H4.5V8.2H4.2V9H3c-.2,0-.3.2-.3.4s.1.4.3.4H7A.4.4,0,0,0,7,9Zm0,.5H2.9V9.2H7l.2.2Z"/><path class="cls-1" d="M3.4,3c.1,0,.2,0,.2-.1s-.1-.1-.2-.1H1.8c-.1,0-.1,0-.1.1V6.8a.1.1,0,0,0,.1.1H8.4V2.9a.1.1,0,0,0-.1-.1H6.6a.1.1,0,1,0,0,.2H8.2v.4H6.5a.1.1,0,0,0,.1.1H8.2V6.7H1.9V3.6H3.4c.1,0,.2,0,.2-.1H1.9V3Z"/><path class="cls-1" d="M6.1,6.2h.2V5.4c0-.1-.1-.1-.2-.1H3.9a.1.1,0,0,0-.1.1v.7H6.1ZM4,5.5H6v.4H4Z"/><path class="cls-1" d="M3.9,3v.5h.1l.7-.3H5A1.7,1.7,0,0,0,6.7,1.7,1.7,1.7,0,0,0,5,0,1.8,1.8,0,0,0,3.3,1.7,2.2,2.2,0,0,0,3.9,3ZM5,.2A1.5,1.5,0,0,1,6.5,1.7,1.5,1.5,0,0,1,5,3.1H4.6l-.5.2V2.9a.1.1,0,0,0-.1-.1,1.6,1.6,0,0,1-.5-1.1A1.5,1.5,0,0,1,5,.2Z"/><path class="cls-1" d="M5,1.9c-.2,0-.3-.2-.3-.4V.9A.3.3,0,0,1,5,.6c.2,0,.4.1.4.3v.6A.4.4,0,0,1,5,1.9ZM5,.8H4.9v.6a.3.3,0,0,0,.1.2.2.2,0,0,0,.2-.2V.9Z"/><path class="cls-1" d="M5,2.8c-.2,0-.3-.2-.3-.4A.3.3,0,0,1,5,2.1c.2,0,.4.1.4.3A.4.4,0,0,1,5,2.8Zm0-.5H4.9a.3.3,0,0,0,.1.2.2.2,0,0,0,.2-.2Z"/></g></g></svg>