<?xml version="1.0" standalone="no"?>
<!DOCTYPE svg PUBLIC "-//W3C//DTD SVG 20010904//EN"
 "http://www.w3.org/TR/2001/REC-SVG-20010904/DTD/svg10.dtd">
<svg version="1.0" xmlns="http://www.w3.org/2000/svg"
 width="345.000000pt" height="345.000000pt" viewBox="0 0 345.000000 345.000000"
 preserveAspectRatio="xMidYMid meet">
<metadata>
Created by potrace 1.14, written by Peter Selinger 2001-2017
</metadata>
<g transform="translate(0.000000,345.000000) scale(0.100000,-0.100000)"
fill="#000000" stroke="none">
<path d="M2835 2905 c-24 -10 -59 -14 -93 -11 -184 15 -308 -103 -358 -338
-14 -69 -21 -267 -10 -316 3 -14 26 -106 51 -205 24 -99 46 -193 48 -210 8
-57 -29 -100 -154 -181 -74 -48 -91 -64 -113 -108 -33 -65 -45 -124 -52 -244
-3 -53 -10 -115 -15 -137 -14 -57 -51 -136 -62 -132 -27 9 -117 228 -143 347
-4 19 -9 42 -11 50 -14 66 -14 114 0 152 9 24 32 100 51 169 40 149 56 183 99
209 41 25 90 25 146 0 24 -11 44 -20 46 -20 10 0 37 93 42 146 7 79 2 84 -114
125 -56 19 -100 42 -121 62 -22 22 -35 28 -43 20 -16 -16 -39 -113 -39 -169 0
-63 -61 -277 -106 -367 -52 -109 -114 -179 -176 -202 -16 -6 -17 0 -14 62 5
124 -11 136 -44 33 -16 -51 -32 -78 -57 -100 -18 -17 -38 -30 -43 -30 -5 0 -8
19 -6 42 8 90 -21 92 -58 4 -38 -88 -106 -147 -151 -130 -25 10 -43 56 -38 94
9 64 8 74 -8 78 -26 5 -95 -53 -165 -142 -37 -46 -85 -94 -106 -106 -106 -59
-247 -20 -279 78 -6 20 -21 56 -31 80 -17 35 -25 42 -50 42 -82 0 -170 -104
-212 -250 -19 -70 -30 -142 -51 -345 -4 -33 -11 -74 -16 -91 -44 -140 -217
-41 -299 171 -19 49 -24 80 -24 170 -1 96 2 119 27 185 52 142 128 234 318
386 110 88 199 179 199 202 0 13 -141 142 -155 142 -6 0 -38 -25 -70 -55 -33
-30 -62 -54 -65 -54 -3 -1 -30 23 -61 52 -30 30 -63 56 -72 60 -11 4 -38 -15
-89 -64 l-72 -70 74 -74 c41 -41 83 -75 93 -75 10 0 43 25 73 55 31 30 59 55
63 55 4 0 28 -22 54 -48 l47 -48 -67 -49 c-227 -167 -342 -369 -348 -613 -3
-122 13 -205 58 -294 46 -93 110 -166 189 -215 104 -65 158 -77 201 -43 34 27
37 48 40 275 3 172 5 197 27 260 26 73 96 161 122 153 7 -3 27 -32 43 -66 53
-109 112 -155 200 -155 101 0 164 48 280 212 35 51 45 60 45 42 0 -67 59 -158
105 -162 8 -1 21 -2 28 -3 27 -4 68 18 101 54 23 25 37 35 44 28 15 -15 65 0
96 29 26 24 29 25 38 9 8 -14 18 -16 46 -11 69 13 133 55 178 117 13 17 24 28
24 22 5 -111 88 -447 130 -523 11 -20 -74 -91 -170 -141 -43 -22 -133 -56
-201 -75 -68 -20 -148 -42 -177 -51 -88 -25 -55 -36 87 -29 283 14 390 37 493
107 26 18 48 37 48 42 0 5 22 -12 49 -37 78 -73 154 -106 259 -112 221 -12
379 165 461 515 56 239 45 408 -54 820 -30 124 -57 241 -60 260 -3 19 -10 53
-16 75 -5 22 -12 94 -15 160 -5 93 -3 136 10 189 19 80 72 196 89 196 27 0
114 -79 157 -143 53 -77 81 -151 109 -282 32 -147 36 -221 35 -628 l-2 -388
68 68 67 69 -3 255 c-3 299 -10 396 -40 552 -48 243 -150 412 -302 499 l-54
31 30 13 c42 17 112 11 166 -16 98 -47 195 -201 236 -374 37 -153 44 -256 45
-594 0 -149 1 -272 3 -272 2 0 32 29 68 64 l65 63 -6 199 c-7 265 -14 325 -52
484 -36 154 -95 263 -192 361 -88 87 -143 113 -246 116 -52 2 -94 -3 -120 -12z
m-91 -44 c4 0 -6 -17 -23 -36 -33 -38 -71 -108 -90 -166 -12 -36 -13 -43 -31
-129 -5 -25 -8 -103 -6 -175 5 -170 26 -262 135 -595 105 -321 115 -405 66
-556 -50 -159 -158 -299 -272 -352 -82 -38 -174 -38 -258 1 -33 16 -70 37 -81
48 -20 19 -21 23 -9 64 8 24 16 72 19 107 15 155 19 183 32 221 20 58 62 109
145 181 135 114 145 132 170 291 10 61 6 245 -5 264 -2 3 -7 24 -10 46 -3 22
-13 78 -22 125 -9 47 -18 96 -20 110 -2 14 -7 36 -10 49 -7 33 -6 208 1 256
12 69 47 148 84 187 48 52 109 71 185 59z"/>
<path d="M2483 1445 c-17 -7 -35 -24 -39 -37 -7 -21 -13 -78 -8 -78 1 0 14 7
30 14 33 18 44 13 44 -18 0 -19 -20 -57 -74 -144 -7 -11 -4 -12 12 -3 54 29
108 157 103 243 -2 28 -32 38 -68 23z"/>
<path d="M1990 2720 c-47 -22 -97 -39 -112 -39 -41 -1 -68 -33 -68 -81 0 -41
4 -44 48 -40 36 3 162 57 174 74 4 6 8 0 8 -13 0 -24 -51 -80 -130 -144 l-35
-29 30 7 c94 20 158 80 190 175 19 59 17 124 -5 126 -8 1 -53 -15 -100 -36z"/>
<path d="M1600 2289 c-180 -167 -363 -271 -639 -363 -90 -30 -166 -58 -169
-61 -24 -24 111 -35 238 -19 77 9 214 50 285 85 140 69 271 196 334 323 51
104 36 114 -49 35z"/>
<path d="M2180 1816 c0 -54 -16 -68 -32 -29 l-12 28 -3 -25 c-8 -54 -14 -70
-27 -70 -8 0 -16 7 -20 15 -10 27 -26 15 -26 -20 0 -34 27 -75 50 -75 5 0 17
11 26 25 9 14 22 25 29 25 37 0 63 84 43 142 -15 42 -28 34 -28 -16z"/>
<path d="M1590 1052 c-29 -63 -58 -76 -95 -42 -19 18 -27 20 -44 11 -12 -7
-21 -16 -21 -21 0 -4 -12 -22 -26 -39 -24 -29 -29 -31 -74 -25 l-47 6 -64 -62
c-77 -74 -121 -106 -214 -153 -75 -37 -205 -81 -257 -86 -5 -1 -8 -6 -8 -11 0
-7 15 -9 38 -6 20 3 64 8 97 12 33 3 62 8 65 9 3 2 25 6 49 10 73 11 132 46
208 122 39 40 76 73 81 73 6 0 21 -4 35 -9 32 -12 75 10 106 54 26 39 36 43
49 18 13 -22 66 -21 91 1 30 28 63 113 58 154 l-3 37 -24 -53z"/>
</g>
</svg>
