<svg xmlns="http://www.w3.org/2000/svg" viewBox="0 0 9.1 9.1"><defs><style>.cls-1{fill:#231f20;}</style></defs><g id="Layer_2" data-name="Layer 2"><g id="Layer_1-2" data-name="Layer 1"><path class="cls-1" d="M8.1,4.6H8V3.2a.1.1,0,0,1,.2,0V4.5Z"/><path class="cls-1" d="M5.9,1.2H4.6c-.1,0-.1-.1-.1-.2H6C6,1.1,6,1.2,5.9,1.2Z"/><path class="cls-1" d="M8.1,4.9H6.8a.9.9,0,0,1,.3.6.8.8,0,0,1-.3.7,1.1,1.1,0,0,1-.7.3,1.1,1.1,0,0,1-1-.9.9.9,0,0,1,.3-.7H4.2V4.1h.6a1.2,1.2,0,0,0,.9-.3A1.6,1.6,0,0,0,6,3,1.2,1.2,0,0,0,4.9,1.8L4.2,2V1H.6a.6.6,0,0,0-.6.6V8.6c0,.3.2.5.6.5H7.7a.5.5,0,0,0,.5-.5V5ZM.6,1.2H4v1h.1c0,.1.1.1.1,0l.7-.2a.9.9,0,0,1,.9.9.9.9,0,0,1-.3.7.9.9,0,0,1-.7.3l-.6-.2H4V4.9H3.2a1.3,1.3,0,0,0,.1-.6A1.1,1.1,0,0,0,2.2,3.1,1.2,1.2,0,0,0,.9,4.3a1.4,1.4,0,0,0,.2.6H.3V1.5A.3.3,0,0,1,.6,1.2ZM.3,8.6V5.2h1a.1.1,0,0,0,.1-.1V4.9c-.2-.1-.2-.4-.2-.6a.9.9,0,0,1,.3-.7.6.6,0,0,1,.7-.2.9.9,0,0,1,.9.9.7.7,0,0,1-.3.6v.2H4V6l-.6-.2A1.2,1.2,0,0,0,2.2,7a1.6,1.6,0,0,0,.3.9l.9.3H4v.8H.6A.3.3,0,0,1,.3,8.6ZM8,8.6l-.3.3H4.2V7.8H4a.7.7,0,0,1-.6.3.9.9,0,0,1-.7-.3A1.1,1.1,0,0,1,2.4,7a1.1,1.1,0,0,1,1-.9.7.7,0,0,1,.6.2h.2v-1H5c-.1.1-.1.4-.1.6A1.1,1.1,0,0,0,6,6.9a.9.9,0,0,0,.9-.3,1,1,0,0,0,.4-.9.7.7,0,0,0-.1-.5H8Z"/><path class="cls-1" d="M8.9,1.2H8.7V.9a.2.2,0,0,0,0-.3L8.6.4H8V.2L7.7,0H7.4a.2.2,0,0,0-.2.2V.4H6.9c-.1,0-.3,0-.3.1L6.3.6c0,.1-.1.2,0,.3v.2H6.2a.2.2,0,0,0-.2.2v.3c0,.1.1.2.2.3h.2v.3c-.1.1,0,.2,0,.3l.3.2c0,.1.2.1.3,0h.2V3c0,.1.1.1.2.1H8V2.7h.3a.2.2,0,0,0,.3,0l.2-.2a.2.2,0,0,0,0-.3V2h.2c.2-.1.2-.2.2-.3V1.4C9.1,1.3,9.1,1.2,8.9,1.2Zm0,.5H8.4l.2.4h0l-.2.2h0L8,2.4H7.9a.1.1,0,0,0-.1.1v.4H7.4V2.5c0-.1,0-.1-.1-.1H7.1l-.4.2h0l-.2-.2h0L6.7,2c.1,0,.1,0,0-.1H6.2V1.4h.5c.1,0,.1,0,0-.1L6.5.8h0L6.7.5h0l.4.2a.1.1,0,0,0,.1.1h.1V.3h.3V.7a.1.1,0,0,1,.1.1A.1.1,0,0,0,8,.7L8.4.5h0l.2.2h0l-.2.3h0c0,.1,0,.1.1.1h.4Z"/><path class="cls-1" d="M7.6,1a.5.5,0,0,0-.6.6.6.6,0,0,0,.6.6.6.6,0,0,0,.6-.6A.6.6,0,0,0,7.6,1Zm0,.9c-.2,0-.4-.1-.4-.3a.4.4,0,0,1,.4-.4c.2,0,.3.2.3.4A.3.3,0,0,1,7.6,1.9Z"/></g></g></svg>