<svg xmlns="http://www.w3.org/2000/svg" viewBox="0 0 8.4 7.7"><defs><style>.cls-1{fill:#231f20;}</style></defs><g id="Layer_2" data-name="Layer 2"><g id="Layer_1-2" data-name="Layer 1"><path class="cls-1" d="M8.4,3.7,4.9.2h0L4.6,0V3.3H2.1a.1.1,0,0,0-.1.1v1H5.6v-2L7.1,3.8,4.6,6.2V7.3h0v.3L8.4,3.9h0ZM4.9,7.1V6.3L7.3,3.9h0L5.6,2.1h0l-.2-.2V4.1H2.2V3.5H4.9V.5L8.2,3.8Z"/><path class="cls-1" d="M1.1,2.3V1.1H3.7c.1,0,.1-.1.1-.2V.1H0V2.3H0V7.6a.1.1,0,0,0,.1.1H3.7a.1.1,0,0,0,.1-.1V6.7a.1.1,0,0,0-.1-.1H1.1V2.4ZM.9,6.8H3.6v.6H.2v-5h0V.2H3.6V.8H.8V2.3h0V6.7Z"/></g></g></svg>