<svg xmlns="http://www.w3.org/2000/svg" viewBox="0 0 9.3 10"><defs><style>.cls-1{fill:#333;}</style></defs><g id="Layer_2" data-name="Layer 2"><g id="Layer_1-2" data-name="Layer 1"><path class="cls-1" d="M7.3,2.7h0l-.4-.3H6.8l-.2.2-.5-.2h.1a.2.2,0,0,0,.2-.2H5.2c0,.1,0,.2.1.2h.1L5,2.4l-.2-.2H4.6l-.3.3h0l.2.2c-.1.1-.1.1-.1.2v.2a1.4,1.4,0,0,1,1.3-.9A1.3,1.3,0,0,1,7.1,3.8,1.3,1.3,0,0,1,6.3,5l.2.2a1.7,1.7,0,0,0,.9-1.4,1.2,1.2,0,0,0-.3-.9Zm-.4-.2h0c0-.1-.1-.1-.1-.2ZM5.7,2.2h0Zm-1,.3h.1l-.2.2h.1Z"/><path class="cls-1" d="M5.8,2.6c-.1,0-.1.1-.1.2v.6c-.2.1-.3.2-.3.4s.1.2.3.3v.2a.1.1,0,0,0,.1.1h.1V4.1c.1-.1.2-.2.2-.3a.5.5,0,0,0-.2-.4V2.6Zm0,1.3a.1.1,0,0,1-.1-.1c0-.1,0-.2.1-.2v.2Z"/><path class="cls-1" d="M3.4,2.6c0-.1-.1-.1-.3-.1a.2.2,0,0,0-.2.2l-1.4,3L.1,7.1a.4.4,0,0,0,0,.5l.4.3-.4.4a.4.4,0,0,0,0,.5l.6.6h.5L1.6,9l.3.4h.5l.3-.3,1.5.9h.2L5,9.4H5a.1.1,0,0,0-.1-.1l-1.3-1L3.8,8l3-1.4L7,6.4a.4.4,0,0,0-.1-.3ZM.3,7.4h0L1.7,5.9h0L3.1,2.8h.2l2.9,3L3.1,7.2h0L1.6,8.7ZM1,9.2c0,.1-.1.1-.1,0L.3,8.7c-.1-.1-.1-.2,0-.2l.4-.4.7.7Zm3.7.1-.4.4L2.9,8.9l.5-.5Zm2-2.9-3,1.4H3.6L2.2,9.2H2.1l-.3-.3L3.2,7.5,6.4,6l.3.3h0Z"/><path class="cls-1" d="M6,0H5.8L6,.3a2.9,2.9,0,0,1,3,3,.2.2,0,0,0,.2.2.3.3,0,0,0,.1-.2A3.3,3.3,0,0,0,6,0Z"/><path class="cls-1" d="M6,1c-.1,0-.2,0-.2.1l.2.2a2,2,0,0,1,2,2,.2.2,0,0,0,.2.2c.1,0,.1-.1.1-.2A2.3,2.3,0,0,0,6,1Z"/></g></g></svg>