<svg xmlns="http://www.w3.org/2000/svg" viewBox="0 0 10.8 9.1"><defs><style>.cls-1{fill:#231f20;}</style></defs><g id="Layer_2" data-name="Layer 2"><g id="Layer_1-2" data-name="Layer 1"><path class="cls-1" d="M10.1,6.8a.8.8,0,0,0,.2-.5.8.8,0,0,0-.9-.8.8.8,0,0,0-.9.8.8.8,0,0,0,.2.5c-.2.1-.5.2-.6.5s-.3-.4-.6-.5a.8.8,0,0,0,.2-.5.8.8,0,0,0-.9-.8.7.7,0,0,0-.8.8.7.7,0,0,0,.1.5,1.3,1.3,0,0,0-.6.5c-.1-.3-.3-.4-.6-.5a.8.8,0,0,0,.2-.5.8.8,0,0,0-.8-.8.8.8,0,0,0-.9.8.8.8,0,0,0,.2.5c-.3.1-.5.2-.6.5a1.3,1.3,0,0,0-.6-.5.7.7,0,0,0,.1-.5.7.7,0,0,0-.8-.8.8.8,0,0,0-.9.8.8.8,0,0,0,.2.5,1,1,0,0,0-.7.9V8.9c0,.1,0,.2.1.2H10.7c.1,0,.1-.1.1-.2V7.7A1,1,0,0,0,10.1,6.8ZM.5,7.7a.7.7,0,0,1,.7-.6h.3V6.8a.5.5,0,0,1-.3-.5.6.6,0,0,1,.6-.6.6.6,0,0,1,.6.6.5.5,0,0,1-.3.5V7h.3a.6.6,0,0,1,.6.6V8.8H.5Zm2.6,0a.6.6,0,0,1,.6-.6h.4c0-.1-.1-.1-.1-.2a.5.5,0,0,1-.3-.5.6.6,0,0,1,.6-.6.6.6,0,0,1,.5.6.5.5,0,0,1-.3.5c0,.1-.1.1,0,.2h.3a.6.6,0,0,1,.6.6V8.8H3.1Zm2.6,0a.6.6,0,0,1,.6-.6h.3V6.8a.7.7,0,0,1-.4-.5.6.6,0,0,1,.6-.6.6.6,0,0,1,.6.6.5.5,0,0,1-.3.5V7h.3a.7.7,0,0,1,.7.6V8.8H5.7Zm4.8,1.1H8.2V7.7a.7.7,0,0,1,.7-.6h.3V6.8a.5.5,0,0,1-.3-.5.6.6,0,1,1,1.2,0,.5.5,0,0,1-.3.5V7h.3a.6.6,0,0,1,.6.6Z"/><path class="cls-1" d="M10.1,4.2a.8.8,0,0,0,.2-.5.8.8,0,0,0-.9-.8.8.8,0,0,0-.9.8.8.8,0,0,0,.2.5,1.5,1.5,0,0,0-.6.5,1,1,0,0,0-.6-.5.8.8,0,0,0,.2-.5.8.8,0,0,0-.9-.8.7.7,0,0,0-.8.8.7.7,0,0,0,.1.5l-.6.5a1,1,0,0,0-.6-.5.8.8,0,0,0,.2-.5.8.8,0,0,0-.8-.8.8.8,0,0,0-.9.8.8.8,0,0,0,.2.5,1.1,1.1,0,0,0-.8.9V6.3a.2.2,0,0,0,.2.2.3.3,0,0,0,.1-.2V5.1a.6.6,0,0,1,.6-.6h.4c0-.1-.1-.1-.1-.2a.5.5,0,0,1-.3-.5.6.6,0,0,1,.6-.6.6.6,0,0,1,.5.6.5.5,0,0,1-.3.5c0,.1-.1.1,0,.2h.3a.6.6,0,0,1,.6.6V6.3a.3.3,0,0,0,.1.2.2.2,0,0,0,.2-.2V5.1a.6.6,0,0,1,.6-.6h.3V4.2a.7.7,0,0,1-.4-.5.6.6,0,0,1,.6-.6.6.6,0,0,1,.6.6.5.5,0,0,1-.3.5c-.1.1-.1.1-.1.2h.3a.7.7,0,0,1,.7.6V6.3c0,.1,0,.2.1.2s.1-.1.1-.2V5.1a.7.7,0,0,1,.7-.6h.3c0-.1,0-.1-.1-.2a.5.5,0,0,1-.3-.5.6.6,0,1,1,1.2,0,.5.5,0,0,1-.3.5c-.1.1-.1.1-.1.2h.3a.6.6,0,0,1,.6.6V6.3a.2.2,0,0,0,.2.2c.1,0,.1-.1.1-.2V5.1A1,1,0,0,0,10.1,4.2Z"/><path class="cls-1" d="M10.1,1.7a1.4,1.4,0,0,0,.2-.6.9.9,0,0,0-1.8,0,1.4,1.4,0,0,0,.2.6.8.8,0,0,0-.6.4.7.7,0,0,0-.6-.4,1.4,1.4,0,0,0,.2-.6A.9.9,0,0,0,6.8.3a.8.8,0,0,0-.8.8,1.3,1.3,0,0,0,.1.6.8.8,0,0,0-.7.8V3.9l.2-.2V2.5a.6.6,0,0,1,.6-.6h.3a.7.7,0,0,1-.4-.6A.6.6,0,0,1,6.8.5a.6.6,0,0,1,.6.6.6.6,0,0,1-.3.6c-.1,0-.1,0-.1.1h.3a.7.7,0,0,1,.7.6V3.7c0,.1,0,.2.1.2s.1-.1.1-.2V2.5a.7.7,0,0,1,.7-.6h.3c0-.1,0-.1-.1-.1a.6.6,0,0,1-.3-.6.6.6,0,1,1,1.2,0,.6.6,0,0,1-.3.6c-.1,0-.1,0-.1.1h.3a.6.6,0,0,1,.6.6V3.7a.2.2,0,0,0,.2.2c.1,0,.1-.1.1-.2V2.5A.8.8,0,0,0,10.1,1.7Z"/><path class="cls-1" d="M.4,5.6H.1a.6.6,0,0,1,0-.6L4.1.8A.4.4,0,0,1,3.7.4.5.5,0,0,1,4.2,0h.9a.4.4,0,0,1,.4.4v1a.4.4,0,0,1-.4.4.4.4,0,0,1-.4-.4L.7,5.5ZM4.2.3C4.1.3,4,.3,4,.4h.6V.8L.3,5.1v.2H.5L4.7,1h.2c0,.1.1.1.1.2v.3a.1.1,0,0,0,.2,0V.4c0-.1,0-.1-.1-.1Z"/></g></g></svg>