<svg xmlns="http://www.w3.org/2000/svg" viewBox="0 0 9 10.5"><defs><style>.cls-1{fill:#231f20;}</style></defs><g id="Layer_2" data-name="Layer 2"><g id="Layer_1-2" data-name="Layer 1"><path class="cls-1" d="M4.5,3.7c-.1,0-.1,0-.1-.1V2.8h.2v.8C4.6,3.7,4.6,3.7,4.5,3.7Z"/><path class="cls-1" d="M4.5,7.8H4.4V6.9a.1.1,0,1,1,.2,0v.8Z"/><path class="cls-1" d="M6.9,5.4h0Z"/><path class="cls-1" d="M2.9,5.4H2.1A.1.1,0,0,1,2,5.3h.9Z"/><path class="cls-1" d="M5.2,9,4,8.1H3.6c-.1,0-.2.1-.2.3v.3A3.8,3.8,0,0,1,.9,5.3a3.6,3.6,0,0,1,2-3.2l.3-.3a.8.8,0,0,0-.1-.4l-.2-.2H2.5A4.6,4.6,0,0,0,0,5.3,4.8,4.8,0,0,0,1,8.1,4.9,4.9,0,0,0,3.4,9.7v.5c0,.1.1.3.2.3H4l1.2-.9a.5.5,0,0,0,0-.6Zm-.1.4-1.2.9H3.7V9.4A4.3,4.3,0,0,1,.2,5.3,4.2,4.2,0,0,1,2.6,1.5h.2c0,.1.1.1.1.2h0c0,.1,0,.1-.1.1A3.9,3.9,0,0,0,.7,5.3,4,4,0,0,0,3.5,9h.2V8.4h0c.1,0,.1-.1.2,0l1.2.9h0Z"/><path class="cls-1" d="M7.9,2.3A4.9,4.9,0,0,0,5.3.8V.3c0-.1,0-.2-.2-.3H4.8L3.6,1c-.1.1-.2.2-.2.3a.2.2,0,0,0,.2.2l1.2,1c.1,0,.2.1.3,0s.2-.2.2-.3V1.8A3.6,3.6,0,0,1,8.1,5.3,3.7,3.7,0,0,1,5.9,8.6a.4.4,0,0,0-.2.6c0,.1.1.2.3.2h.3A4.5,4.5,0,0,0,9,5.3,4.8,4.8,0,0,0,7.9,2.3ZM6.2,9.2H5.9c0-.1,0-.3.1-.3A3.8,3.8,0,0,0,8.3,5.3,3.9,3.9,0,0,0,5.2,1.5H5.1v.6H4.9l-1.2-1h0L4.9.3h.2V1a.1.1,0,0,0,.1.1,4.2,4.2,0,0,1,1,8.1Z"/><path class="cls-1" d="M5,5V4.7a.6.6,0,0,0-.6-.6.6.6,0,0,0-.6.6V5a.7.7,0,0,0-.4.6v.7c0,.1,0,.1.1.1H5.3c.1,0,.1,0,.1-.1V5.6A.7.7,0,0,0,5,5Zm.2,1.2H3.8V5.6a.4.4,0,0,1,.4-.4h.1c.1,0,.1,0,.1-.1h0c-.2-.1-.2-.2-.2-.3a.3.3,0,0,1,.3-.3.3.3,0,0,1,.3.3.4.4,0,0,1-.1.3H4.6a.1.1,0,0,0,.1.1h.1a.4.4,0,0,1,.4.4Z"/><path class="cls-1" d="M6.5,4.8H6.4A2,2,0,0,0,5,3.4h.1A2.3,2.3,0,0,1,6.6,4.7Z"/><path class="cls-1" d="M2.5,4.8H2.4A2.3,2.3,0,0,1,3.9,3.2H4A1.7,1.7,0,0,0,2.7,4.7Z"/><path class="cls-1" d="M3.9,7.4h0A2.3,2.3,0,0,1,2.4,5.9c0-.1,0-.2.1-.2h.2A1.7,1.7,0,0,0,4,7.1v.2Z"/><path class="cls-1" d="M5.1,7.4H4.9V7.1A2,2,0,0,0,6.4,5.8h.1c.1,0,.1.1.1.2A2.3,2.3,0,0,1,5.1,7.4Z"/></g></g></svg>