<svg xmlns="http://www.w3.org/2000/svg" viewBox="0 0 38.1 38.1"><defs><style>.cls-1{fill:#232221;}.cls-2{fill:#fff;}</style></defs><g id="Layer_2" data-name="Layer 2"><g id="Layer_1-2" data-name="Layer 1"><path class="cls-1" d="M19,38.1h0A19.1,19.1,0,0,1,0,19H0A19,19,0,0,1,19,0h0A19.1,19.1,0,0,1,38.1,19h0A19.2,19.2,0,0,1,19,38.1Z"/><path class="cls-2" d="M8.9,25.4a11.5,11.5,0,0,0,6.4,1.9A11.8,11.8,0,0,0,27.1,14.9a8.8,8.8,0,0,0,2.1-2.2,7.3,7.3,0,0,1-2.4.7,4.2,4.2,0,0,0,1.8-2.3,8.2,8.2,0,0,1-2.6,1,4.4,4.4,0,0,0-3.1-1.3,4.1,4.1,0,0,0-4,5.1,12,12,0,0,1-8.6-4.3,4.1,4.1,0,0,0,1.3,5.5,4.1,4.1,0,0,1-1.9-.5A4.2,4.2,0,0,0,13,20.7a3.6,3.6,0,0,1-1.8.1,4.2,4.2,0,0,0,3.9,2.9A8.7,8.7,0,0,1,8.9,25.4Z"/></g></g></svg>