<svg xmlns="http://www.w3.org/2000/svg" viewBox="0 0 23.6 36.5"><defs><style>.cls-1{fill:#fff;}</style></defs><g id="Layer_2" data-name="Layer 2"><g id="Layer_1-2" data-name="Layer 1"><path class="cls-1" d="M22.6,33.3a3.3,3.3,0,0,0-2.4-1H19L12.9,10.1a3.8,3.8,0,0,0,1.5-.9,3,3,0,0,0,1-2.4,2.9,2.9,0,0,0-1-2.3,3.3,3.3,0,0,0-2.3-1,3.3,3.3,0,0,0-2.4,1,3.3,3.3,0,0,0-1,2.3,3.3,3.3,0,0,0,1,2.4,2.6,2.6,0,0,0,1.7.9l-6,22.2H4.1a3.3,3.3,0,0,0-2.4,1,3.5,3.5,0,0,0-1,2.4h0a.8.8,0,0,0,.7.8H22.9a.8.8,0,0,0,.7-.8h0A3.1,3.1,0,0,0,22.6,33.3Zm-7.3-8.9-2.6,2.8V21.6l2.5,2.8Zm-2.6-4.5V15.1L14.6,22Zm-1.1,0L9.7,22l1.9-6.9ZM9.1,24.4l2.5-2.8v5.6L9.1,24.4Zm.5,7.9,2-2.2v2.2Zm3.1-2.2,2,2.2h-2Zm3.5,2.2-3.3-3.6,2.7-3,1.8,6.6Zm-6-25.5a1.8,1.8,0,0,1,.6-1.3A1.9,1.9,0,0,1,12.1,5a2.1,2.1,0,0,1,1.3.5,2.1,2.1,0,0,1,.5,1.3,1.9,1.9,0,0,1-.5,1.3,1.8,1.8,0,0,1-1.3.6,1.6,1.6,0,0,1-1.3-.6A1.6,1.6,0,0,1,10.2,6.8ZM8.7,25.7l2.7,3L8.1,32.3H6.9ZM2.4,35a.9.9,0,0,1,.4-.6,1.6,1.6,0,0,1,1.3-.6H20.2a1.8,1.8,0,0,1,1.4.6,1.5,1.5,0,0,1,.4.6Z"/><path class="cls-1" d="M16,3.5a4.1,4.1,0,0,1,1.6,1.6,4,4,0,0,1,.6,2.2,4.5,4.5,0,0,1-.3,1.6,7.1,7.1,0,0,1-1,1.4A.8.8,0,1,0,18,11.4a6.4,6.4,0,0,0,1.3-1.9,5.7,5.7,0,0,0,.4-2.2,6.1,6.1,0,0,0-.8-3,6.6,6.6,0,0,0-2.2-2.2.8.8,0,0,0-1,.3A.8.8,0,0,0,16,3.5Z"/><path class="cls-1" d="M4.5,4.3a6.1,6.1,0,0,0-.8,3,5.7,5.7,0,0,0,.4,2.2,6.4,6.4,0,0,0,1.3,1.9.8.8,0,1,0,1.1-1.1,7.1,7.1,0,0,1-1-1.4,4.5,4.5,0,0,1-.3-1.6,4,4,0,0,1,.6-2.2A4.1,4.1,0,0,1,7.4,3.5a.8.8,0,0,0,.3-1.1.8.8,0,0,0-1-.3A6.6,6.6,0,0,0,4.5,4.3Z"/><path class="cls-1" d="M18.3,1.4A6.5,6.5,0,0,1,20.9,4a6.8,6.8,0,0,1,1,3.5,5.8,5.8,0,0,1-.6,2.6,5.7,5.7,0,0,1-1.5,2.3.8.8,0,0,0,1.1,1.1,8.4,8.4,0,0,0,1.8-2.8,7.1,7.1,0,0,0,.7-3.2,8,8,0,0,0-1.2-4.3A8.4,8.4,0,0,0,19.1.1.8.8,0,0,0,18,.4.8.8,0,0,0,18.3,1.4Z"/><path class="cls-1" d="M3.6,13.5a.8.8,0,0,0,0-1.1,5.7,5.7,0,0,1-1.5-2.3,5.8,5.8,0,0,1-.6-2.6A6.8,6.8,0,0,1,2.5,4,6.5,6.5,0,0,1,5.1,1.4a.8.8,0,0,0,.3-1A.8.8,0,0,0,4.3.1,8.4,8.4,0,0,0,1.2,3.2,8,8,0,0,0,0,7.5a7.1,7.1,0,0,0,.7,3.2,8.4,8.4,0,0,0,1.8,2.8A.8.8,0,0,0,3.6,13.5Z"/></g></g></svg>