<svg xmlns="http://www.w3.org/2000/svg" viewBox="0 0 7.6 9"><defs><style>.cls-1{fill:#231f20;}</style></defs><g id="Layer_2" data-name="Layer 2"><g id="Layer_1-2" data-name="Layer 1"><path class="cls-1" d="M7.5,5.3h-3c0-.1,0-.1.1-.1H7.5c.1,0,.1,0,.1.1Z"/><path class="cls-1" d="M3.4,5.2a1.4,1.4,0,0,0,.5-1.1,1.8,1.8,0,0,0-.4-1,1.8,1.8,0,0,0-1-.4,1.6,1.6,0,0,0-1.4.9h0v.2h0C1,3.9,1,4,1,4.1s0,.3.1.4h0a.4.4,0,0,0,.1.3h0l.2.3h.1A1.5,1.5,0,0,0,0,6.7V8.9H4.9V6.7A1.5,1.5,0,0,0,3.4,5.2ZM4.7,8.8H.2V6.7A1.3,1.3,0,0,1,1.5,5.4h.4A.1.1,0,0,0,2,5.3H1.6l-.2-.2h0a1.4,1.4,0,0,1-.2-.7V3.7h0a1.2,1.2,0,0,1,1.1-.8h.1A1.3,1.3,0,0,1,3.7,4.1a.6.6,0,0,1-.1.4h0a.4.4,0,0,1-.1.3h0L3.3,5H3c0,.1,0,.1.1.1h.3A1.3,1.3,0,0,1,4.7,6.7Z"/><path class="cls-1" d="M6.1,2.5a1.4,1.4,0,0,0,.5-1.1A1.4,1.4,0,0,0,5.2,0,1.5,1.5,0,0,0,3.7,1.4a1.4,1.4,0,0,0,.5,1.1H3.7c-.1,0-.1.1-.1.2H4.7c0-.1-.1-.1-.1-.2a1.2,1.2,0,0,1-.7-1.1A1.3,1.3,0,0,1,5.2.2,1.3,1.3,0,0,1,6.4,1.4a1.2,1.2,0,0,1-.7,1.1c0,.1-.1.1,0,.2h.4A1.3,1.3,0,0,1,7.4,4V6.1H5.5a.1.1,0,0,0-.1.1H7.6V4A1.5,1.5,0,0,0,6.1,2.5Z"/></g></g></svg>