<svg xmlns="http://www.w3.org/2000/svg" viewBox="0 0 38.1 38.1"><defs><style>.cls-1{fill:#232221;}.cls-2{fill:#fff;fill-rule:evenodd;}</style></defs><g id="Layer_2" data-name="Layer 2"><g id="Layer_1-2" data-name="Layer 1"><rect class="cls-1" width="38.1" height="38.06" rx="19"/><path class="cls-2" d="M29.5,18.5A10.3,10.3,0,0,0,19.2,8.6,10.1,10.1,0,0,0,9,18.3v.5A10.1,10.1,0,0,0,10.4,24L8.6,29.5l5.7-1.8a9.9,9.9,0,0,0,4.9,1.2A10.2,10.2,0,0,0,29.5,18.8ZM19.2,27.3a8.4,8.4,0,0,1-4.7-1.4L11.2,27l1-3.2a8.8,8.8,0,0,1-1.6-5v-.9a8.7,8.7,0,0,1,8.6-7.7,8.6,8.6,0,0,1,8.6,7.9v.7A8.5,8.5,0,0,1,19.2,27.3Z"/><path class="cls-2" d="M23.9,20.8,22.2,20a.5.5,0,0,0-.6.1,3.9,3.9,0,0,1-.8,1c-.1.2-.3.2-.5.1a6.8,6.8,0,0,1-2-1.3,4.5,4.5,0,0,1-1.4-1.7c-.2-.2,0-.4.1-.5s.2-.3.4-.4,0-.1.1-.2.1-.1.1-.3a.3.3,0,0,0,0-.4,17.8,17.8,0,0,1-.8-1.8c-.2-.5-.4-.5-.5-.5h-.5a1.1,1.1,0,0,0-.7.3,3.2,3.2,0,0,0-.9,2.1,2.9,2.9,0,0,0,.2.9,9.2,9.2,0,0,0,.8,1.7c.2.2,1.8,2.8,4.3,3.8s2.6.6,3.1.6,1.4-.6,1.6-1.2.3-1.1.2-1.2Z"/></g></g></svg>